<?xml version="1.0" encoding="utf-8"?>
<!-- Generator: Adobe Illustrator 24.3.0, SVG Export Plug-In . SVG Version: 6.00 Build 0)  -->
<svg version="1.1" id="Camada_1" xmlns="http://www.w3.org/2000/svg" xmlns:xlink="http://www.w3.org/1999/xlink" x="0px" y="0px"
	 viewBox="0 0 1000 1000" style="enable-background:new 0 0 1000 1000;" xml:space="preserve">

<g>
	<defs>
		<rect id="SVGID_1_" x="91" y="335.45" width="801" height="336.65"/>
	</defs>
	<clipPath id="SVGID_2_">
		<use xlink:href="#SVGID_1_"  style="overflow:visible;"/>
	</clipPath>
	<path class="st0" d="M462.96,459.43c-0.09-1.69-6.18-6.84-7.43-6.72c-1.56,0.15-2.09,1.19-0.98,2.12c2.21,1.84,4.7,3.36,7.13,4.92
		C461.96,459.92,462.6,459.53,462.96,459.43 M467.23,528.17c-1.27-1.94-1.91-3.41-3.02-4.37c-0.45-0.39-2.12,0.06-2.83,0.64
		c-2.06,1.66-3.95,3.55-5.82,5.44c-0.3,0.3-0.24,1.1-0.11,1.61c0.05,0.19,0.84,0.36,1.21,0.26c2.81-0.77,5.62-1.59,8.41-2.46
		C465.8,529.07,466.44,528.59,467.23,528.17 M475.39,522.7c2.76-2.3,5.27-4.31,7.65-6.45c0.43-0.39,0.36-1.35,0.52-2.05
		c-0.75-0.14-1.57-0.56-2.23-0.38c-2.51,0.68-5.01,1.45-7.42,2.41c-0.8,0.32-2.01,1.7-1.87,1.94
		C472.9,519.69,474.1,521.05,475.39,522.7 M470.12,457.33c0.32-0.12,1.32-0.45,2.26-0.89c4.05-1.88,5.39-5.67,6.56-9.53
		c0.33-1.09,0.32-2.28,0.46-3.42c-1.36,0.54-2.77,0.99-4.06,1.67c-0.46,0.24-0.62,1.03-0.93,1.57c-1.2,2.04-1.2,2.02-4.11,1.91
		c-0.41-0.01-0.98,0.2-1.23,0.51c-0.96,1.2-2.06,2.37-2.69,3.74C465.27,455.29,466.62,457.13,470.12,457.33 M485.53,466.22
		c-2.1,3.38-3.87,6.22-5.62,9.08c-0.8,1.31-1.31,2.34-0.18,4.1c1.81,2.81,2.82,6.13,4.39,9.12c0.48,0.91,1.66,1.45,2.52,2.16
		c0.71-0.89,1.63-1.7,2.07-2.71c0.35-0.8,0.25-1.87,0.1-2.78C487.77,478.97,486.67,472.76,485.53,466.22 M512.2,578.16
		c7.85-0.24,13.34-5.46,18.52-11.04c1.05-1.14,0.67-2.5-1.42-2.88c-4.37-0.79-8.69-1.89-13.06-2.7c-0.86-0.16-2.35,0.08-2.7,0.66
		c-2.05,3.37-4.23,6.76-5.64,10.41C506.61,575.97,508.33,577.98,512.2,578.16 M491.48,561.52c-0.06-0.02-0.13-0.05-0.19-0.08
		c0.06-0.29,0.27-0.75,0.16-0.85c-3.76-3.48-3.33-9.25-7.62-12.75c-4.25-3.47-7.39-8.29-11.05-12.49c-1.02-1.18-2.08-2.33-3.24-3.37
		c-1.06-0.94-6.27-0.43-7.18,1c-0.52,0.82-0.29,2.68,0.33,3.58c6.95,10.08,14.88,19.29,24.72,26.71c0.83,0.63,1.84,1.01,2.77,1.51
		C490.6,563.7,491.04,562.61,491.48,561.52 M533.1,510.5c-12.24-5.26-21.47,2.27-24.2,12.82c-1.26,4.89-1.66,10-2.65,14.98
		c-0.37,1.89-1.26,3.69-1.99,5.49c-0.13,0.33-0.63,0.51-0.96,0.75c-0.15-0.38-0.46-0.77-0.43-1.14c0.29-3.49-1.73-2.66-3.38-1.65
		c-3.6,2.21-5.62,5.68-6.63,9.66c-0.37,1.45,0,3.09,0.03,4.64c1.18-0.77,2.35-1.53,3.53-2.3c0.52-0.33,1.04-0.66,1.56-1
		c-0.1,0.7-0.08,1.44-0.33,2.07c-0.22,0.55-0.81,0.93-1.13,1.46c-2.73,4.55-2.38,12.04,1.04,16.04c0.8,0.93,2.53,1.33,3.87,1.4
		c0.41,0.02,1.03-1.83,1.36-2.89c1.33-4.24,1.51-9.34,4.06-12.59c6.97-8.85,10.03-19.18,13.52-29.48
		C522.76,521.74,525.5,514.78,533.1,510.5 M528.59,557.43c5.29,1.19,7.92-2.73,10.56-5.78c5.7-6.6,9.52-14.29,11.04-22.93
		c0.76-4.35,0.92-8.98-3.17-11.92c-3.47-2.5-7.65-3.09-11.22-0.23c-2.17,1.74-4.09,4.16-5.26,6.67c-2.6,5.55-4.55,11.4-6.98,17.04
		c-1.4,3.24-2.57,6.61-6.58,8.07c-1.42,0.52-2.12,3.04-3.15,4.65c1.04,0.56,2.01,1.33,3.12,1.63
		C520.8,555.66,524.71,556.51,528.59,557.43 M433.37,556.65c-3.46,0.97-6.06,0.15-8.13-2.23c-2.21-2.55-5.05-3.4-8.26-3.49
		c-2.19-0.06-4.39-0.07-6.57-0.24c-4.89-0.38-9.12,1.26-13.01,4.03c-4.28,3.05-5.55,9.59-2.36,13.63c4.28,5.41,10.27,7.57,16.96,8.2
		c11.06,1.03,21.88-0.63,32.68-2.72c6.59-1.28,12.83-3.21,17.75-8.13c3.79-3.79,3.41-9.18-1.03-12.07
		c-2.27-1.48-4.51-1.99-6.64,0.46c-0.77,0.88-1.91,1.54-3.01,1.98c-0.63,0.25-1.51-0.12-2.28-0.22c0.41-0.5,0.87-0.97,1.21-1.51
		c1.07-1.71,3.92-2.74,2.74-5.31c-1.1-2.38-3.22-3.79-6.06-3.62c-0.31,0.02-0.62-0.01-0.94-0.02c-1.86-0.07-2.02,0.42-1.13,2.12
		c1.74,3.34,1.61,3.5-1.99,4.54c-3.89,1.13-7.6,1.5-10.22-2.71c-1.13-1.82-2.73-2.28-4.71-0.64c-2.17,1.81-0.98,3.53,0.15,4.81
		C429.66,554.78,431.47,555.47,433.37,556.65 M448.64,522.37c0.61,0.02,0.92,0.02,1.23,0.05c2.11,0.17,5.34-0.79,3.52,3.45
		c-0.01,0.03,1.39,1,1.8,0.81c0.93-0.42,1.73-1.22,2.44-1.99c5.78-6.25,13.02-10.02,21.01-12.56c0.73-0.24,1.47-0.54,2.11-0.96
		c0.5-0.33,0.85-0.89,1.27-1.35c-0.64-0.1-1.27-0.2-1.91-0.28c-1.27-0.17-1.2-0.14-0.55-1.97c2.93-8.24,3.94-16.38-0.7-24.49
		c-1.41-2.46-2.93-2.91-5.3-1.96c-9.01,3.61-18.31,5.03-27.9,3.11c-8.8-1.76-16.96-4.73-21.07-13.72c-1.14-2.5-2.94-1.92-3.88-0.53
		c-2.05,3.01-4.66,6.24-5.09,9.62c-1.12,8.76-1.36,17.67,3.9,25.6c0.27,0.4,0.13,1.06,0.18,1.6c-0.44-0.02-0.92,0.06-1.32-0.08
		c-0.87-0.3-1.02-2.47-2.71-0.72c-1.4,1.46-0.62,2.6,0.05,3.67c3.72,6.05,8.59,10.98,14.97,14.21c2.31,1.17,4.81,2.07,7.32,2.66
		c0.91,0.22,2.11-0.82,3.18-1.29c-0.65-0.63-1.29-1.28-1.95-1.9c-0.68-0.63-1.49-1.16-2.04-1.88c-0.67-0.88-1.13-1.93-1.68-2.9
		c0.96,0.32,1.99,0.51,2.87,0.99C441.7,521.35,445.02,522.96,448.64,522.37 M441.85,449.87c6.38-1.5,13.84-0.4,21.36-2.76
		c9.59-3,15.97-8.97,21.3-16.69c0.91-1.32,3.21-3.6,0.11-5.49c-0.08-0.05,0.32-1.42,0.79-1.77c2.49-1.81,6.35-0.2,6.87,2.86
		c0.06,0.33-1.11,1.19-1.14,1.17c-2.72-2.44-2.78,0.32-3.5,1.76c-1.02,2.06-2.09,4.09-3.06,6.17c-1.04,2.23-2.39,4.41-2.9,6.77
		c-1.33,6.12-2.13,12.38-7.54,16.62c-0.43,0.34-0.72,0.86-1.07,1.3c0.73,0.06,1.6,0.41,2.18,0.14c5.12-2.42,8.48-6.4,10.23-11.8
		c0.98-3.02,1.06-2.93,3.81-2.5c0.69,0.11,1.49-0.25,2.21-0.49c6.42-2.11,10.55-6.49,13.34-12.61c2.99-6.57,0.32-16.18-6.15-19.42
		c-6.66-3.33-13.11-2.14-19.24,1.71c-0.51,0.32-1.26,0.28-1.89,0.4c0.03-0.59-0.16-1.32,0.12-1.76c2.79-4.5,1.85-9.24,1.05-14
		c-1.42-8.4-11.03-11.93-18.31-10.51c-4.63,0.9-7.58,3.87-10.08,7.56c-1.61,2.38-1.67,2.33-4.26,1.47
		c-0.14-0.05-0.38-0.12-0.44-0.05c-1.38,1.57-2.98,3.02-4.01,4.8c-0.52,0.88-0.49,2.85,0.14,3.51c3.3,3.41,3.6,7.24,2.49,11.55
		c-0.65,2.52-2.17,5.78-1.19,7.57c3.43,6.26-2.15,1.15-2.57,2.26c-1.44-0.55-2.86-1.15-4.32-1.64c-3.13-1.04-6.25-1.29-9.35,0.23
		c-1.24,0.61-2.18,1.14-1.29,2.77c1.68,3.08,0.04,5.53-1.87,7.71c-2.38,2.72-2.48,4.44,0.22,6.59
		C428.83,447.29,434.49,449.47,441.85,449.87 M485.56,347.32c9.64,0.56,19.38,6.92,22.65,17.17c2.28,7.16-1.59,15.96-8.72,19.33
		c-1.65,0.78-3.27,1.69-4.75,2.75c-0.32,0.23-0.3,1.7,0.06,2.01c3.03,2.6,6.22,5,9.26,7.59c1.12,0.95,1.73,1.1,2.3-0.41
		c0.43-1.14,1.18-2.2,1.45-3.37c1.78-7.95,7.7-11.97,14.8-12.88c10.23-1.31,16.66,2.28,21.35,10.8c4.63,8.4,4.74,17.02,0.9,25.87
		c-4.05,9.31-17.17,14.39-27.18,8.36c-1.84-1.11-3.73-2.12-5.59-3.17c-0.58,2-1.13,4.02-1.74,6.02
		c-2.52,8.27-7.13,14.95-15.01,18.92c-3.05,1.54-4.05,2.85-2.38,6.54c1.73,3.82,1.94,8.35,2.67,12.59
		c1.16,6.68,2.03,13.41,3.34,20.05c2.12,10.73-4.34,13.99-11.1,15.14c-2.45,0.41-3.53,1.53-4.52,3.32
		c-0.97,1.78-1.03,3.19,0.84,4.74c3.39,2.82,3.36,6.13,0.32,9.49c-1.12,1.24-2.29,2.45-3.55,3.55c-3.31,2.9-3.5,3.05-0.18,6.13
		c4.1,3.8,8.55,7.22,12.75,10.91c1.59,1.4,2.72,0.79,4.52,0.26c5.06-1.48,6.28-4.47,6.43-9.51c0.19-6.18,2.58-12.11,6.47-17.05
		c3.19-4.06,7.59-6.11,12.94-6.35c7.88-0.36,14.81,2.69,21.84,5.47c2.85,1.12,4.39,3.34,5.75,6.09c3.95,7.97,1.54,15.43-1.5,22.74
		c-2.68,6.46-6.92,11.94-12.4,16.42c-1.7,1.39-4.13,2.73-2,5.73c0.4,0.56-0.06,2.03-0.54,2.83c-1.11,1.84-2.52,3.49-3.73,5.28
		c-0.44,0.66-0.62,1.48-0.93,2.23c0.71,0.27,1.42,0.78,2.12,0.76c6.03-0.14,11.98-0.88,17.71-2.9c0.87-0.31,1.74-0.72,2.48-1.25
		c3.36-2.41,3.57-5.03,0.71-8c-0.37-0.39-0.66-0.84-0.99-1.27c0.6-0.11,1.24-0.41,1.79-0.3c3.17,0.66,4.69,4.19,3.26,7.36
		c-2.23,4.95-6.87,6.8-11.5,7.67c-5.74,1.08-11.7,0.89-17.54,1.52c-2.08,0.22-4.1,1.18-6.1,1.9c-2.73,0.98-5.38,2.66-8.17,2.93
		c-2.61,0.25-5.39-0.8-8.03-1.54c-2.34-0.66-4.61-1.6-6.85-2.56c-1.39-0.6-3.09-1.15-3.93-2.27c-4.98-6.63-12.64-9.96-18.5-15.43
		c-4.43-4.14-8.59-8.6-12.49-13.24c-2.77-3.3-4.84-7.16-7.34-10.69c-0.46-0.65-1.43-0.96-2.2-1.35c-1.86-0.95-3.41-1.87-3.31-4.5
		c0.05-1.27-1.06-3.55-1.92-3.69c-1.79-0.29-4.17,0-5.55,1.05c-1.52,1.17-2.65,2.37-4.76,2.09c-2.24-0.3-1.65,1.3-1.25,2.35
		c1.09,2.86,2.16,5.77,3.63,8.45c0.53,0.97,2.19,1.88,3.32,1.86c5.28-0.07,9.44,1.48,12.71,5.98c1.41,1.94,4.42,2.64,6.45,4.21
		c5.94,4.58,4.82,8.72,2.42,13.71c-0.32,0.67-1.42,1.21-1.4,1.78c0.27,6.55-4.73,8.73-9.32,10.83c-4.75,2.17-9.6,4.6-15.25,1.92
		c-1.49-0.71-3.9,0.29-5.83,0.76c-7.99,1.96-16.02,3.76-24.27,2.48c-4.38-0.68-8.71-1.92-12.94-3.28c-3.22-1.04-4.59-3.75-4.53-7.08
		c0.02-0.93-0.42-1.95-0.9-2.8c-4.78-8.51,0.12-15.7,5.15-19.12c6.01-4.08,12.95-4.65,20.03-3.38c1.82,0.32,3.64,0.74,5.48,0.91
		c0.61,0.06,1.37-0.41,1.91-0.83c1.18-0.93,2.1-2.27,3.39-2.94c2.4-1.25,2.72-2.63,1.89-5.24c-1.41-4.4-2.06-9.05-3.27-13.53
		c-0.3-1.09-1.52-1.94-2.36-2.86c-3.33-3.63-6.9-7.06-9.93-10.92c-2.08-2.65-2.53-5.95-0.64-9.15c1.8-3.03-0.43-5.67-1.22-8.2
		c-2.86-9.09,0.61-24.02,9.63-29.2c5.55-3.18,10.55-7.33,15.77-11.07c0.36-0.26,0.59-0.71,0.88-1.07c-0.48-0.28-0.93-0.68-1.46-0.83
		c-2.49-0.72-5.02-1.34-7.5-2.08c-5.24-1.56-8.87-4.9-10.95-9.97c-0.76-1.86-2.02-2.99-3.92-4.15c-3.92-2.39-6.75-5.97-5.83-11.27
		c0.43-2.49,1.27-4.45,3.79-5.33c2.54-0.88,5.03-0.91,6.77,1.41c2.37,3.17,4.79,3.4,8.27,1.57c1.79-0.94,4.39-0.6,6.59-0.4
		c2.42,0.22,3.57-0.69,2.93-2.92c-1.5-5.23-0.14-10.05,1.34-15.01c2.72-9.16,8.74-15.08,17.44-18.4c2.53-0.96,5.36-1.2,8.07-1.65
		c2.01-0.33,2.93-0.86,1.5-3.01c-1.53-2.3-3.12-4.67-4.05-7.24c-3.85-10.75,2.98-21.87,12.91-25.08
		C478.21,348.29,481.95,347.99,485.56,347.32"/>
	<path class="st0" d="M274.95,585.73c0.16,0.43,0.32,0.87,0.48,1.3c2.93-0.49,5.87-0.93,8.78-1.51c0.42-0.09,0.78-0.82,0.99-1.32
		c0.06-0.13-0.61-0.82-0.83-0.77C281.23,584.15,278.09,584.95,274.95,585.73 M308.4,519.1c-1.64-1.37-2.2-2.05-2.38-1.96
		c-2.52,1.27-5,2.65-7.48,4.01c0.86,1.03,2.29,3.07,2.49,2.95C303.44,522.72,305.66,521.03,308.4,519.1 M325.68,586.67
		c2.01-0.33,4.1-0.38,5.92-1.08c1.48-0.57,2.64-1.94,3.95-2.95c-1.34-0.61-2.67-1.26-4.03-1.81c-1.27-0.52-2.55-1.12-3.89-1.39
		c-2.27-0.45-4.8,1.69-5.06,4.2C322.34,585.91,323.75,586.62,325.68,586.67 M290.17,460.96c5.81,0.39,10.76-1.27,14.44-6.02
		c1.11-1.44,0.55-1.83-0.91-1.92c-4.03-0.25-7.25,1.68-9.51,4.59c-1.21,1.55-1.73,1.62-3.21,0.88c-0.78-0.39-1.94-0.58-2.71-0.29
		c-0.98,0.37-1.75,1.32-2.61,2.01c0.92,0.35,1.82,0.8,2.77,1.01C288.95,461.35,289.58,461.07,290.17,460.96 M249.39,483.92
		c-0.89-1.52-1.54-3.32-2.8-4.42c-0.41-0.35-2.99,0.79-3.56,1.82c-1.23,2.22-2.15,4.76-2.46,7.26c-0.12,1,1.54,2.47,2.71,3.27
		c0.51,0.35,2.29-0.13,2.65-0.74C247.24,488.9,248.2,486.48,249.39,483.92 M308.53,487.52c2.15-0.42,4.22-0.53,6.03-1.28
		c1.19-0.49,2.68-1.32,1.2-3.53c-2.73-4.09-4.98-8.51-7.37-12.82c-1.62-2.94-2.84-3.02-4.77-0.25c-1.74,2.5-3.54,4.95-5.21,7.49
		c-0.33,0.51-0.54,1.64-0.24,1.94c2.57,2.59,5.22,5.1,7.95,7.51C306.76,487.14,307.79,487.25,308.53,487.52 M311.83,564.51
		c-0.9-1.74-1.64-3.69-2.82-5.31c-2.64-3.62-5.56-7.04-8.26-10.62c-2.78-3.7-5.41-7.52-8.17-11.23c-1.53-2.05-4.36-2.73-5.95-1.03
		c-0.75,0.81-0.44,2.94-0.11,4.35c0.42,1.77,0.98,3.75,2.13,5.07c6.12,7.07,11.64,14.72,19.1,20.53c0.66,0.51,1.75,0.98,2.43,0.78
		C310.77,566.88,311.08,565.73,311.83,564.51 M242.76,558.96c-2.74-0.09-5.48-0.33-8.22-0.26c-4.7,0.12-9.36,3.95-10.94,8.77
		c-1.72,5.24,0.17,11.95,3.99,14.83c5.4,4.08,11.81,4.25,17.67,2.93c7.29-1.64,14.4,0.44,21.53-0.57c0.44-0.06,1.08-0.04,1.34,0.23
		c1.96,2.04,3.7,3.53,4.44-0.86c0.07-0.4,0.91-0.83,1.46-0.95c1.64-0.36,3.33-0.54,4.98-0.85c3.92-0.74,8.03-1.08,10.75-4.59
		c1.37-1.77,1.43-6.26-0.14-7.71c-1.89-1.74-3.94-2.63-6.72-1.12c-1.93,1.05-4.39,1.24-6.64,1.55c-0.53,0.07-1.2-0.91-1.81-1.41
		c0.58-0.3,1.12-0.7,1.73-0.88c1.18-0.34,2.49-0.35,3.58-0.86c3.76-1.78,4.26-5.18,1.11-7.5c-0.95-0.7-2.26-1.87-2.85,0.77
		c-0.32,1.44-1.76,3.67-2.79,3.72c-3.79,0.18-7.62-0.3-11.4-0.82c-0.55-0.07-0.8-1.76-1.35-2.6c-0.19-0.29-0.99-0.5-1.31-0.35
		c-2.2,1.06-2.46,3.38-0.59,4.88c0.8,0.64,2.97,0.2,1.9,2.15c-0.18,0.33-2.14-0.14-3.18-0.51c-0.68-0.24-1.26-0.9-1.77-1.47
		C253.6,561.03,248.58,559.11,242.76,558.96 M339.21,577.28c0.93-0.31,2.22-0.52,3.25-1.14c3.12-1.87,6.08-3.83,8.68-6.59
		c5.04-5.35,10.87-9.95,16.03-15.19c1.74-1.76,2.97-4.42,3.47-6.87c0.46-2.26,0.44-5.49-0.87-6.97c-1.15-1.31-4.7-1.64-6.61-0.9
		c-3.64,1.41-7.43,3.34-10.15,6.06c-4.81,4.8-8.78,10.43-13.27,15.58c-2.85,3.27-5.97,6.32-9.03,9.41c-0.27,0.27-0.99,0.11-1.5,0.14
		c0.15-0.39,0.19-0.88,0.46-1.16c1.67-1.72,4.01-3.1,2.47-6.16c-0.15-0.3,0.5-1.06,0.87-1.54c4.73-6.22,9.44-12.46,14.22-18.64
		c3.64-4.69,7.52-9.09,13.91-10.02c0.55-0.08,1.09-0.57,1.55-0.96c0.86-0.75,1.65-1.34-0.07-2.29c-5.06-2.8-10.47-4.21-15.91-2.22
		c-8.89,3.25-14.22,10.21-17.31,18.93c-1.29,3.62-2.28,7.35-3.49,11c-0.23,0.68-0.88,1.22-1.33,1.83c-0.29-0.62-0.44-1.38-0.9-1.81
		c-0.59-0.54-1.68-1.33-2.13-1.12c-3.47,1.66-5.91,4.4-6.81,8.15c-0.26,1.08-1.52,4.68,2.31,2.29c0.19,0.45,0.66,1.04,0.52,1.34
		c-0.83,1.79-2.02,3.44-2.68,5.28c-0.94,2.6,0.62,4.49,2.61,5.78c1.98,1.28,2.69-0.69,3.43-1.94c0.89-1.51,1.6-2.62,2.86-0.31
		c0.05,0.09,1.08-0.11,1.13-0.3c1-4.11,3.56-2.89,6.19-1.97C333.59,575.83,336.15,576.42,339.21,577.28 M260.76,531.85
		c1.49,0.05,3.09,0.45,4.45,0.05c1.08-0.32,1.87-1.62,2.8-2.49c-0.87-0.54-1.68-1.25-2.62-1.58c-2.47-0.85-5.03-1.44-7.47-2.35
		c-0.75-0.28-1.23-1.26-1.84-1.91c0.76-0.11,1.53-0.38,2.28-0.31c1.21,0.12,2.38,0.55,3.58,0.72c3.33,0.46,6.77,1.51,10,1.1
		c4.26-0.54,5.32-0.45,6.39,3.53c0.83,3.07,1.45,3.2,3.81,0.84c1.73-1.73,3.22-3.83,5.22-5.13c5.27-3.45,10.72-6.63,16.19-9.74
		c1.87-1.07,3.05-1.75,0.63-3.48c-1.99-1.41-2.97-2.71-0.53-5.06c1.38-1.33,2.31-4.03,2.08-5.96c-0.68-5.79-1.72-11.6-5.56-16.4
		c-2.47-3.09-2.82-3.13-6.26-0.74c-0.99,0.69-2.17,1.2-3.33,1.53c-6.53,1.86-13.12,1.16-19.57-0.16
		c-8.06-1.66-15.09-5.29-19.97-12.32c-0.62-0.88-2.43-2.05-2.85-1.78c-2.29,1.46-4.35,3.28-6.38,5.1c-0.25,0.23-0.05,1.26,0.26,1.7
		c0.17,0.24,1.06,0.15,1.53-0.03c3.62-1.34,6.08-0.32,7.27,3.07c1.59,4.55-0.29,11.08-3.8,14.41c-1.66,1.58-2.96,1.42-4.96,0.71
		c-2.12-0.75-2.56-1.97-2.5-3.85c0.05-1.56,0.13-3.13,0.01-4.69c-0.04-0.5-0.67-0.96-1.02-1.45c-0.5,0.44-1.16,0.79-1.47,1.34
		c-0.36,0.64-0.53,1.44-0.62,2.19c-1.15,9.85,0.85,18.77,7.77,26.25c0.53,0.57,0.67,1.49,0.99,2.25c-0.71-0.06-1.49,0.07-2.11-0.2
		c-2.37-1.03-3.38,0.36-4.41,2.13c-1.16,1.98,0.25,3.1,1.44,3.88C246.51,527.19,252.71,531.7,260.76,531.85 M296.2,428.8
		c0.97-2.9,1.87-5.83,2.91-8.7c2.26-6.25,2.44-12.29-0.66-18.47c-2.83-5.64-7.55-7.69-13.3-8.45c-6.41-0.84-10.27,3.33-14.16,7.31
		c-1.37,1.4-2,3.64-3.52,4.76c-1.55,1.14-3.78,1.36-5.71,1.98c0.02-0.48-0.14-1.1,0.09-1.43c2.15-3.05,3.73-6.53,7.4-8.35
		c2.11-1.04,3.76-2.96,5.77-4.26c5.11-3.31,11.13-3.08,16.82-4.11c0.89-0.16,1.78-0.32,2.67-0.48c-0.39-0.93-0.59-2.01-1.19-2.78
		c-6.56-8.42-3.79-19.25,1.02-26.09c2.66-3.77,7.47-6.33,12.25-7.11c9.88-1.6,18.49,1.4,25.48,8.7c7.91,8.26,7.36,22.93-1.06,30.64
		c-2.08,1.91-5.51,2.33-8.31,3.45c-0.66,0.26-1.29,0.58-1.93,0.88c0.34,0.65,0.51,1.64,1.05,1.91c4.53,2.26,6.7,6.42,8.94,10.59
		c0.42,0.77,1.31,1.29,1.99,1.92c0.61-0.8,1.41-1.52,1.78-2.42c2.87-6.92,8.72-11.16,15.37-12.02c12.03-1.55,19.58,5.25,22.09,17.74
		c2.04,10.16-1.02,18.46-9.14,24.65c-5.84,4.45-12.67,5.78-19.6,3.11c-2.51-0.97-4.75-3.43-6.36-5.73
		c-1.79-2.56-2.56-1.42-3.61,0.25c-1.56,2.47-3.02,5-4.61,7.45c-2.81,4.34-6.7,7.6-11.08,10.19c-2.26,1.33-2.73,2.67-1.4,4.86
		c2.16,3.56,4.24,7.18,6.37,10.75c2.61,4.37,5.13,8.8,7.88,13.08c2.31,3.6,1.37,8.77-2.06,11.42c-5.4,4.17-11.83,5.56-18.22,7.09
		c-4.05,0.97-5.75,5.86-3.09,9.01c0.71,0.84,1.45,1.65,2.23,2.41c2.02,1.99,2.01,4.13,0.38,6.26c-1.47,1.93-2.86,4.05-4.73,5.54
		c-2.44,1.96-3.48,2.91-0.64,5.93c6.02,6.41,11.26,13.56,16.94,20.3c0.77,0.92,2.23,1.79,3.34,1.75c1.74-0.07,2.13-1.6,2.4-3.35
		c1.38-8.95,6.4-15.94,13.21-21.39c7.34-5.88,18.88-5.5,25.64,1.25c3.04,3.03,6.19,6.82,7.28,11.5c2.22,9.54-2.92,16.46-8.84,22.55
		c-4.49,4.61-10.14,8.1-15.29,12.07c-0.86,0.66-1.91,1.09-2.69,1.82c-0.62,0.58-0.97,1.46-1.44,2.21c0.76,0.32,1.51,0.89,2.28,0.91
		c9.06,0.26,18.14,0.31,26.8-2.81c2.85-1.03,6.52-1.64,6.52-6.03c0-0.34,0.92-1.03,1.21-0.93c0.49,0.16,1.25,1.01,1.15,1.23
		c-0.72,1.58-1.29,3.53-2.55,4.52c-4.25,3.32-9.39,4.7-14.65,5.18c-6.89,0.63-13.83,0.78-20.73,1.26c-1.46,0.1-3.3,0.3-4.25,1.21
		c-3.54,3.36-8.01,4.63-12.42,5.99c-4.99,1.53-7.31,0.43-10.13-3.87c-0.88-1.34-2.42-2.24-3.33-3.57c-1.15-1.68-2.36-3.49-2.81-5.41
		c-0.51-2.17-1.19-3.75-3.08-5.2c-8.34-6.41-15.23-14.31-21.94-22.33c-2.42-2.89-3.85-6.57-5.87-9.81
		c-1.92-3.08-3.95-6.09-6.04-9.06c-0.58-0.83-1.82-2.11-2.26-1.94c-1.11,0.45-2.34,1.44-2.79,2.51c-0.6,1.44,0.22,3.44-2.05,4.24
		c-0.33,0.12-0.44,1.98-0.07,2.77c2.52,5.47,5.1,10.92,7.91,16.24c0.63,1.2,2.13,2.23,3.46,2.72c3.45,1.29,7.46,1.71,7.53,6.78
		c0.01,0.41,1.09,0.82,1.69,1.19c6.11,3.76,6.25,8.33,3.74,15.22c-2.61,7.2-6.98,9.76-13.89,9.78c-3.97,0.01-8.32,2.16-11.51-2.23
		c-0.32-0.43-1.75-0.3-2.56-0.07c-3.11,0.89-6.15,2.05-9.27,2.9c-8.29,2.27-16.72,1.91-25.15,1.01c-3.41-0.36-6.01-3.19-6.6-6.57
		c-0.37-2.11-0.82-4.32-1.8-6.19c-5.51-10.44,4.16-24.39,16.1-22.48c5.83,0.93,11.66,1.2,17.07,3.89c2.12,1.06,5.3-1.16,5.27-3.98
		c-0.03-2.54-0.8-5.13-1.59-7.59c-1.22-3.78-3.17-7.38-3.97-11.23c-0.57-2.75-2.21-3.53-4.24-4.29c-5.02-1.9-9.2-4.97-12.93-8.8
		c-1.52-1.57-2.52-2.91-1.28-5.2c2.56-4.75,1.15-9.09-0.89-13.83c-2.96-6.85-3.4-13.95-0.88-21.48c2.34-6.98,6.64-11.66,12.53-15.42
		c2.47-1.58,4.87-3.28,7.24-4.99c1.53-1.1,2.23-2.01-0.3-3.02c-3.33-1.34-6.75-2.17-9.98-4.24c-3.8-2.45-4.37-5.59-5.21-9.16
		c-0.4-1.71-0.82-3.56-1.76-4.99c-3.55-5.43-2.74-8.83,0.95-13.91c1.3-1.79,3.18-2.97,4.89,0.11c0.62,1.11,2.04,2.43,3.14,2.48
		c2.57,0.11,5.21-0.34,7.74-0.93c0.48-0.11,0.62-1.9,0.82-2.93c0.84-4.24,1.52-8.51,2.52-12.71c0.34-1.44,1.45-2.69,2.71-3.98
		c-0.68,4.89,3.47,9.76-0.43,14.67c-0.4,0.5,0.23,1.87,0.46,2.81c0.21,0.85,0.72,1.65,0.78,2.49c0.29,3.89,0.08,4.06-3.69,3.59
		c-1.53-0.19-3.06-0.58-4.59-0.61c-1.14-0.02-2.68,0.02-3.31,0.71c-0.51,0.56-0.2,2.23,0.2,3.21c1.64,4.01,0.48,6.34-3.93,7.46
		c-4.6,1.18-4.7,1.74-2,5.57c3.65,5.17,8.95,7.45,14.81,8.39c13.81,2.22,26.98-0.63,39.16-6.97c5.49-2.86,10.14-7.43,14.89-11.54
		c1.52-1.31,2.11-3.67,3.18-5.52c0.24-0.41,0.71-0.68,1.07-1.01c0.13,0.57,0.49,1.21,0.34,1.71c-1.03,3.53-2.08,7.05-3.29,10.52
		c-0.52,1.48-2.11,3.03,1.06,3.18c0.1,0,0.22,0.23,0.27,0.37c0.37,1.18,0.72,2.36,1.08,3.54c1.34-0.7,2.93-1.14,3.98-2.15
		c2.93-2.82,6.48-5.45,8.25-8.93c2.59-5.11,2.57-10.89-0.92-15.93c-3.01-4.34-7.17-6.17-12.59-5.18c-3.32,0.61-6.8,0.38-9.47,3
		c-0.21,0.21-1,0.21-1.12,0.04c-0.23-0.34-0.3-0.9-0.19-1.31c0.5-1.92,1.53-3.82,1.54-5.73c0-3.78-0.52-7.57-0.91-11.35
		c-0.04-0.44-0.67-0.83-1.02-1.24c-0.32,0.5-0.81,0.95-0.94,1.5c-0.24,1-0.45,2.06-0.36,3.07
		C302.53,419.12,302.3,420.16,296.2,428.8"/>
	<path class="st0" d="M615.95,426.56c-0.02,0-0.04,0-0.06,0c0.05-1.4,0.18-2.8,0.11-4.19c-0.02-0.48-0.55-0.94-0.85-1.41
		c-0.42,0.34-1.06,0.61-1.21,1.05c-0.74,2.16-1.24,4.4-2.03,6.54c-0.9,2.42,1.1,2.39,2.33,2.86c2.44,0.93,1.35-1.22,1.58-2.06
		C616.04,428.46,615.91,427.49,615.95,426.56 M632.47,540.89c0.07-0.04,1.18-0.22,1.42-0.78c0.49-1.14-2.27-4.67-3.44-4.47
		c-2.7,0.47-5.37,1.11-8.02,1.79c-0.47,0.12-0.8,0.75-1.2,1.15c0.47,0.27,0.91,0.71,1.41,0.79
		C625.67,539.89,628.7,540.32,632.47,540.89 M655.06,459.65c-0.4-0.5-0.95-1.77-1.89-2.21c-0.66-0.32-2.18,0.2-2.73,0.84
		c-0.98,1.14-1.47,2.69-2.26,4.01c-0.39,0.66-0.88,1.58-1.49,1.73c-1.91,0.45-3.09,1.83-2.14,3.25c0.69,1.04,2.98,1.71,4.37,1.47
		C652.21,468.16,654.63,464.44,655.06,459.65 M654.18,568.28c0.19,0.09,0.38,0.19,0.56,0.28c0.02,0.77-0.11,1.6,0.11,2.31
		c0.26,0.86,0.81,1.63,1.24,2.43c0.63-0.6,1.45-1.09,1.86-1.82c2.92-5.19,5.78-10.4,8.58-15.66c0.3-0.58,0.06-1.45,0.06-2.18
		c-0.79,0.13-1.83-0.01-2.33,0.44c-2.22,2.05-4.6,4.05-6.33,6.49C656.29,562.87,655.4,565.69,654.18,568.28 M629.43,424.58
		c-0.12-0.02-0.24-0.04-0.36-0.06c0.05-1.4,0.43-2.9,0.02-4.15c-0.25-0.78-2.03-1.88-2.53-1.63c-3.36,1.65-4.1,5.23-5.24,8.33
		c-0.72,1.95-0.78,4.31,2.2,5.16c0.5,0.14,0.67,1.32,1.07,1.99c0.41,0.69,0.9,1.34,1.36,2c0.5-0.73,1.25-1.39,1.45-2.19
		C628.17,430.9,628.77,427.73,629.43,424.58 M645.03,481.97c-0.01,0-0.01,0-0.02,0c0.06-1.71,0.06-3.43,0.2-5.13
		c0.18-2.26-1.03-2.37-2.46-1.46c-3.81,2.42-6.06,6.1-7.53,10.24c-0.49,1.36-0.01,2.29,1.73,3.09c6.16,2.85,7.4,4.72,8.01-4.87
		C645,483.22,645.01,482.6,645.03,481.97 M609.39,525.11c0.17-0.23,0.34-0.45,0.51-0.67c0.51,0.45,0.96,1.03,1.55,1.29
		c0.46,0.2,1.14,0.13,1.63-0.06c0.19-0.07,0.21-0.84,0.12-1.26c-0.14-0.68-0.43-1.34-0.66-2c0.75,0.46,1.87,0.75,2.19,1.42
		c1.38,2.89,2.61,5.86,3.72,8.87c0.83,2.23,1.34,3.76,4.54,2.59c6.34-2.32,12.89-4.09,19.41-5.85c4.29-1.15,4.39-1,2.13-4.63
		c-5.06-8.13-9.53-16.5-11.67-25.94c-0.19-0.84-0.8-1.65-1.4-2.32c-3.57-4.02-7.12-8.07-10.83-11.96
		c-4.45-4.68-8.13-10.26-14.92-12.2c-5.49-1.57-11.34,0.85-13.27,6.22c-2.03,5.65-2.68,11.73-1.31,17.44
		c1.41,5.88,4.31,11.41,6.57,17.09c0.4,1,1.48,2.6,1.23,2.84c-3.15,2.95-1.28,6.69-1.71,10.02c-0.51,3.97,1.05,6.94,4.83,7.94
		c4.14,1.09,8.53,1.24,12.82,1.7c1.71,0.18,2.37-1,1.76-2.37c-0.61-1.37-0.25-3.17-2.6-3.92
		C612.23,528.76,610.92,526.58,609.39,525.11 M638.44,438.16c0.8-1.13,1.62-2.45,2.61-3.62c6.38-7.58,9.45-15.92,7.63-26.08
		c-1.66-9.27-8.27-12.83-16.34-8.15c-4.34,2.51-6.97,6.42-9.4,10.58c-0.49,0.84-1.39,1.44-2.1,2.15c-0.2-0.84-0.39-1.69-0.59-2.53
		c-0.12-0.46-0.26-0.92-0.65-2.3c-1.53,2.85-2.74,4.8-3.62,6.88c-0.33,0.79-0.16,2,0.22,2.83c0.96,2.13,2.16,4.15,3.32,6.32
		c1.01-1.56,2-3.71,3.57-5.27c1.29-1.28,3.48-2.81,4.89-2.51c1.47,0.32,3.36,2.6,3.56,4.21c1.06,8.77-2.2,16.4-7.61,23.05
		c-0.62,0.76-3.72,1.43-5.29,0.49c-3.42-2.04-6.47-4.7-9.84-6.85c-2.91-1.86-3.71-1.36-4.02,1.99c-0.54,5.83-2.52,7.53-8.36,6.38
		c-2.64-0.52-1.67,0.72-1.36,1.8c1.3,4.55,4.39,7.94,8.05,10.53c8.95,6.34,19.23,8.45,29.98,7.53c3.34-0.28,6.79-1.99,9.73-3.8
		c4.63-2.85,6.88-7.6,8.07-12.78c0.36-1.55,0.43-3.23,0.27-4.81c-0.29-2.82-3.14,0.64-3.94-1.64c0.71-0.44,1.5-0.86,2.21-1.38
		c3.57-2.61,9.01-2.55,12.4,0.2c0.31,0.25,0.51,0.64,0.77,0.96c-0.38,0.17-0.8,0.55-1.14,0.48c-0.89-0.16-1.73-0.56-2.61-0.77
		c-2.93-0.69-3.62,0.02-3.57,3.08c0.11,6.88,0.11,13.77,0.17,20.65c0.01,0.49,0.17,0.98,0.25,1.47c0.39-0.39,1.02-0.72,1.12-1.17
		c0.69-3.05,1.27-6.12,1.89-9.18c0.67,0.89,0.75,1.74,0.85,2.59c0.27,2.38,1.57,3.29,3.65,2.33c7.59-3.5,12.7-9.3,14.98-17.32
		c0.86-3.04,0-5.91-1.97-8.73c-4-5.75-13.39-6.12-20.25-4.54C649.92,432.64,644.3,435.78,638.44,438.16 M613.55,563.43
		c-1.4-0.48-2.79-0.96-4.19-1.44c0.59,1.38,1.18,2.75,1.99,4.66c-1.64-1.39-3.05-2.31-4.13-3.53c-5.56-6.32-13-8.28-20.9-8.84
		c-2.47-0.18-5.47,0.21-7.47,1.51c-7.16,4.65-7.44,11.15-3.03,17.61c4.32,6.32,10.94,9.12,17.94,10.26
		c8.1,1.32,16.42,1.95,24.63,1.79c6.38-0.12,12.84-1.5,19.03-3.17c2.29-0.62,4.72-3.35,5.61-5.68c0.71-1.86-0.62-4.65-1.53-6.82
		c-0.17-0.4-2.77-0.01-4.13,0.38c-6.06,1.73-12.01,0.29-17.79-1.02c-2.15-0.49-3.75-3.41-5.6-5.23c0.55,0.21,1.21,0.3,1.65,0.65
		c6.06,4.84,13.13,5.56,20.4,4.56c1.81-0.25,4.1-2.01,4.78-3.65c0.41-1.01-1.77-3.14-2.91-4.69c-0.33-0.45-1.03-0.67-1.59-0.89
		c-1.52-0.59-2.84-0.64-2.88,1.52c-0.04,2.54-2.25,2.75-3.59,2.47c-3.98-0.85-8.33-1.37-10.06-6.14c-0.58-1.6-4.78-2.5-6.42-1.4
		c-2.05,1.36-1.82,3.35-0.96,5.32C612.66,562.28,613.16,562.83,613.55,563.43 M670.08,572.82c1.11-1.04,2.21-2.08,3.32-3.12
		c-0.74,2.51,0.44,3.67,2.81,3.81c2.96,0.18,5.96-0.01,8.88,0.41c4.29,0.61,7.63-1.02,10.34-3.98c4.58-5,9.19-10.01,13.37-15.34
		c4.53-5.77,3.21-10.47-3.14-12.64c-0.93-0.32-2.07-0.34-3.05-0.18c-3,0.51-5.98,1.18-8.96,1.79c6.15-4.18,10.78-4.26,16.88,0.01
		c1.99,1.39,2.92,0.13,2.72-1.25c-0.48-3.27-0.69-7.08-2.52-9.55c-6.38-8.62-15.54-8.57-23.76-3.31
		c-5.73,3.67-10.06,9.17-13.42,15.21c-1.12,2.01-1.98,4.15-3.05,6.19c-3.82,7.22-7.72,14.38-11.49,21.63
		c-1.36,2.62-1.58,5.46-0.89,8.39c0.51,2.17,1.64,1.24,2.76,0.73c0.66,3.19,2.67,5.04,5.56,4.33c4.45-1.1,8.88-2.45,13.13-4.16
		c2.53-1.02,4.74-2.88,7-4.49c0.69-0.49,1.08-1.42,1.61-2.15c-0.99-0.23-1.97-0.61-2.97-0.65c-1.78-0.07-3.59,0.28-5.34,0.06
		C676.59,574.11,673.34,573.4,670.08,572.82 M700.13,579.34c-1.07-0.31-1.22-0.36-1.37-0.4c-7.73-2.25-13.98,1.42-20.52,4.69
		c-3.9,1.95-8.31,3.03-12.61,3.97c-3.08,0.67-7.92-2.95-8.91-6.24c-1.18-3.97-2.13-8.01-3.17-12.02c-0.08-0.3-0.29-0.67-0.18-0.89
		c2.1-4.34-1.46-6.32-3.62-8.94c-3.83-4.63-7.57-9.32-11.34-14c-1.32-1.64-6.56-2.94-8.12-1.88c-0.32,0.22-0.49,1.05-0.36,1.48
		c0.79,2.66,1.63,5.3,2.54,7.91c1.32,3.78,1.35,3.77,6.19,4.15c0.09,0.01,0.19-0.15,0.29-0.23c1.25,2.61,2.62,5.16,3.69,7.84
		c0.55,1.38,0.26,3.1,0.84,4.47c3.25,7.69-0.54,15.1-8.84,16.39c-10.1,1.57-20.25,2.8-30.54,1.95c-7.73-0.64-15.19-2.14-22.14-5.68
		c-8.21-4.18-11.9-12.98-9.28-21.67c0.98-3.27,6.51-7.92,10.42-7.89c6.48,0.05,12.64,0.77,18.29,4.3c1.66,1.04,3.67,1.57,5.58,2.1
		c1.58,0.43,3.46,1.5,4.05-1.55c0.19-0.98,1.63-1.85,2.67-2.5c2.87-1.77,3.24-2.76,1.77-5.59c-0.78-1.51-1.7-2.98-2.28-4.57
		c-1.72-4.76-4.91-7.23-10.03-7.88c-5.46-0.7-7.86-4.83-7.63-10.3c0.28-6.66,0.74-13.24-2.94-19.63
		c-4.01-6.95-5.13-15.03-3.85-22.96c1.19-7.43,5.72-12.85,12.78-15.9c1.13-0.49,2.35-0.76,3.49-1.24c2.32-0.97,2.44-1.82,0.52-3.43
		c-1.78-1.5-3.5-3.09-5.41-4.41c-5.02-3.49-7.89-8.13-8.36-14.29c-0.07-0.86-0.92-1.74-1.55-2.48c-4.76-5.52-4.85-12.34-1.13-17.01
		c2.88-3.61,7.4-3.95,10.45-0.45c1.57,1.81,2.45,4.21,3.76,6.27c0.69,1.08,1.44,2.43,2.5,2.9c3.31,1.46,3.25,1.31,3.47-2.29
		c0.82-13.24,5.54-24.61,16.61-32.56c2.71-1.95,6.03-3.16,9.21-4.34c4.53-1.68,4.45-1.42,1.31-5.3c-1.6-1.98-2.94-4.33-3.79-6.73
		c-2.32-6.61,0.04-12.39,4.63-16.93c9.04-8.95,19.92-12.61,32.57-9.36c7.89,2.03,12.34,8.69,12.59,16.66
		c0.3,9.43-5.05,15.17-11.7,20.37c-0.97,0.76-2.09,1.32-3.15,1.96c-1.37,0.83-1.44,1.63,0.14,2.19c5.46,1.97,9.12,6.3,13.11,10.13
		c1.69,1.62,2.16,1.05,3.34-0.38c3.89-4.74,7.61-9.71,12.08-13.84c3.31-3.06,7.5-5.38,11.64-7.25c3.21-1.45,10.3,0.91,12.44,4.68
		c4.53,7.97,4.15,16.04,1.83,24.3c-2.76,9.82-7.91,17.86-17.12,23.11c-5.2,2.97-10.05,3.83-14.79-0.16
		c-2.36-1.99-2.65-0.44-3.27,1.18c-0.33,0.87-0.59,1.76-0.87,2.64c-3.39,10.58-10.91,17.05-20.93,21.04
		c-3.99,1.59-6.64,3.77-6.15,8.84c0.73,7.54,0.58,15.17,1.19,22.72c0.65,8.01-1.74,11.86-8.86,12.42c-3,0.23-6.07-0.52-9.11-0.79
		c-1.27-0.11-2.55-0.13-3.83-0.2c0.22,1.61,0.05,3.43,0.74,4.81c2.01,3.98,4.51,7.71,6.56,11.67c2.17,4.18,3.77,8.67,6.11,12.75
		c2.98,5.21,6.4,10.19,9.72,15.2c1.89,2.85,6.88,1.95,8.49-1.54c3.32-7.2,7.67-13.57,13.74-18.81c5.44-4.7,11.12-6.3,18.41-4.69
		c7.64,1.69,11.89,6.13,12.44,13.24c0.34,4.36-0.89,9.44-3.06,13.26c-3.48,6.11-8.27,11.49-12.63,17.08
		c-1.24,1.58-2.98,2.77-4.41,4.21c-0.73,0.73-1.29,1.63-1.93,2.45c1.1,0.28,2.19,0.61,3.3,0.83c8.34,1.66,16.53,0.07,24.67-1.37
		c4.07-0.73,4.91-2.43,5.16-6.68c0.02-0.46,0.47-0.89,0.72-1.34c0.54,0.37,1.59,0.85,1.54,1.11c-0.36,1.73-0.43,4.06-1.57,4.99
		c-2.29,1.87-5.08,3.7-7.91,4.22C712.15,578.4,705.67,578.75,700.13,579.34"/>
	<path class="st0" d="M157.29,543.78c-1.54-0.9-2.44-1.81-3.42-1.92c-2.21-0.25-4.94,2.75-4.41,4.96c0.19,0.77,2.24,1.94,2.6,1.69
		C153.78,547.34,155.21,545.74,157.29,543.78 M147.91,407.73c0.03-0.15,0.06-0.31,0.09-0.47c1.92,0.43,3.83,0.92,5.76,1.27
		c0.56,0.11,1.59,0,1.68-0.26c0.2-0.58,0.15-1.44-0.16-1.97c-1.95-3.33-5.17-4.75-8.65-6.11c-2.83-1.1-3.94-0.47-4.56,2.23
		c-0.82,3.58-0.26,4.55,3.11,5.03C146.08,407.58,147,407.64,147.91,407.73 M156.61,470.1c-0.85-1.07-1.59-2.62-2.81-3.25
		c-0.57-0.3-2.36,0.92-3.07,1.85c-1.25,1.65-2.05,3.63-3.12,5.43c-0.85,1.42-1.53,3.32-2.81,4.01c-1.54,0.82-2.55,1.3-1.33,2.91
		c0.89,1.18,1.87,1.08,3.48,0.36c4.71-2.1,5.52-7.5,9.35-10.23C156.49,471.03,156.47,470.61,156.61,470.1 M150.84,500.05
		c0.2,0.08,0.41,0.16,0.61,0.24c-0.17,0.58-0.66,1.45-0.45,1.68c2.18,2.34,4.19,5.04,6.85,6.64c1.24,0.74,3.99-0.35,5.73-1.25
		c3.94-2.04,3.94-2.35,1.57-5.81c-2.37-3.47-5.02-6.76-7.23-10.32c-1.21-1.94-2.39-2.13-3.31-0.35
		C153.11,493.8,152.08,496.98,150.84,500.05 M195.37,563.67c-0.59-1.83-0.63-3.52-1.32-3.86c-4.19-2.04-9.76,0.54-11.69,5.14
		c-0.59,1.41-1.14,2.85-1.82,4.21c-2.51,5.1-5.05,10.18-7.62,15.25c-0.84,1.66-0.69,2.37,1.43,2.67c6.26,0.89,9.15-0.68,11.78-6.48
		c1.13-2.49,2.7-4.77,4.02-7.17C191.95,570.1,193.73,566.73,195.37,563.67 M143,590.41c-1.05,0.01-2.6-0.42-3.05,0.1
		c-2.98,3.43-6.98,3.32-10.62,2.61c-2.99-0.59-3.05,0.27-2.35,2.39c1,2.98-0.74,2.91-2.56,2.23c-1.28-0.48-2.33-1.57-3.48-2.39
		c0.87-1.15,1.49-2.8,2.65-3.36c2.75-1.32,1.94-3.37,1.23-5.08c-1.85-4.55-4.02-8.98-6.06-13.45c-0.51-1.11-0.78-2.42-1.54-3.32
		c-1.86-2.19-3.62-4.69-5.99-6.15c-3.76-2.31-8.05-3.75-12-5.78c-5.03-2.59-6.1-7.25-2.91-11.69c1.85-2.57,1.98-7.05-0.03-9.69
		c-4.02-5.26-5.2-11.3-5.18-17.69c0.01-3.28,0.24-6.57,0.32-9.85c0.13-4.89,2.29-8.55,5.84-11.98c3.9-3.77,8.21-6.27,13.39-7.48
		c0.3-0.07,0.6-0.15,0.88-0.28c3.01-1.38,3.12-2.25,0.23-4.14c-1.63-1.06-3.78-1.44-5.24-2.66c-4.41-3.7-8.77-7.5-12.82-11.59
		c-2.83-2.85-3.1-6.71-2.32-10.53c0.44-2.14,2.14-3.01,4.16-2.88c1.51,0.1,3,0.59,4.48,0.99c6.03,1.63,8.81-0.2,9.35-6.38
		c0.25-2.94,0.14-5.92,0.41-8.86c0.11-1.1,0.85-2.15,1.31-3.22c0.69,0.87,1.66,1.63,2,2.61c1.26,3.62,2.3,7.32,3.43,10.99
		c0.14,0.44,0.17,1,0.46,1.28c0.98,0.94,2.23,2.65,3.08,2.49c1.89-0.36,0.85-2.04,0.72-3.41c-0.4-4.22-0.66-8.47-0.55-12.7
		c0.03-1.12,1.58-2.19,2.43-3.29c0.73,1.02,1.81,1.94,2.13,3.08c1.12,3.98,2.41,8,2.82,12.08c0.5,5-4.04,8.27-9.46,7.57
		c-2.77-0.36-5.59-0.63-8.36-0.5c-4.09,0.19-4.92,1.81-2.95,5.35c1.72,3.1,2.95,5.94-1.19,8.27c-0.44,0.25-0.45,2.63,0.09,3.05
		c2.52,1.93,5.13,4.53,8.03,5.05c11.15,1.99,21.12,0.05,29.02-9.37c3.76-4.48,6.23-9.15,7.83-14.64c1.44-4.92,3.49-9.67,5.27-14.49
		c0.45,0.07,0.9,0.14,1.35,0.2c0.12,5.47,0.2,10.94,0.37,16.41c0.04,1.36,0.07,2.83,0.6,4.04c0.32,0.74,0.79,1.64,2.67,0.62
		c4.88-2.64,5.18-2.21,5.87-3.92c1.01-2.53,2.04-5.07,2.75-7.69c0.94-3.43,1.44-6.97,2.37-10.4c2.43-8.97-6.69-15.7-14.37-13.85
		c-3.91,0.94-7.37,2.39-8.74,6.66c-0.09,0.28-0.33,0.53-0.54,0.76c-0.82,0.92-1.66,1.83-2.5,2.74c0.19-1.34,0.41-2.68,0.56-4.03
		c0.07-0.66,0.04-1.34-0.01-2c-0.09-1.21-0.32-2.41-0.31-3.62c0.04-3.18,0.25-6.35,0.27-9.53c0.03-7.03-6.04-9.37-11.81-6.93
		c-0.84,0.36-1.58,0.95-2.41,1.33c-0.33,0.15-0.79,0.03-1.19,0.03c0.09-0.39,0.07-1,0.31-1.13c4.18-2.21,1.87-5.51,0.71-7.76
		c-2.8-5.44-1.78-10.66-0.63-16.17c1.38-6.61,5.39-10.99,10.61-14.79c3.14-2.29,6.35-3.29,10.11-2.42c1.04,0.24,2.01,0.79,3.05,1.06
		c5.66,1.51,7.18,0.66,8.59-4.71c-0.53,4.01-1.16,8.05,5,7.96c0.32-0.01,0.77,1.69,0.93,2.64c0.07,0.39-0.47,0.88-0.73,1.33
		c-0.56-0.63-1.04-1.35-1.69-1.86c-1.13-0.87-2.29-1.77-3.59-2.31c-0.36-0.15-1.17,1-1.86,1.41c-3.79,2.21-3.02,6.83-5.24,9.87
		c-0.13,0.18-0.11,0.72,0.04,0.84c3.9,3.12,0.13,3.74-1.62,4.97c-3.01,2.13-3.35,3.79-1.02,6.98c1.8,2.46,3.98,4.64,5.75,7.11
		c2.08,2.92,3.77,6.13,5.91,9c0.7,0.94,2.28,1.21,3.46,1.79c0.24-0.94,0.53-1.86,0.71-2.81c1.26-6.56,3.65-12.53,8.68-17.21
		c2.34-2.18,4.65-4.41,6.79-6.77c3.97-4.37,5.86-9.25,3.19-15.09c-0.51-1.11-0.51-2.44-1.02-3.55c-2.69-5.91-6.42-10.93-12.4-13.94
		c-2.11-1.06-4.36-1.65-5.88,0.51c-1.91,2.72-3.33,5.77-4.96,8.68c-0.45-5.12-1.08-10.22-1.28-15.35
		c-0.17-4.17,0.34-8.08,2.79-11.97c3.52-5.6,10.02-7.05,15.42-3.32c7.34,5.07,9.95,12.63,12.08,20.49
		c1.4,5.16,2.61,10.34,5.88,14.67c2.52,3.34,3.15,6.97,2.74,10.99c-0.42,4.18-3.39,7.09-7.5,7.26c-2.31,0.1-4.91-0.63-6.25,2.4
		c-0.66,1.48-1.01,1.99,1.04,2.36c7.4,1.33,12.94,5.53,16.3,12.17c4.64,9.17,5.19,22.56-4.54,30.19
		c-5.45,4.28-10.65,6.99-17.55,5.58c-0.75-0.15-1.54-0.34-2.21-0.7c-1.44-0.77-2.81-1.67-4.2-2.52c-0.49,1.45-0.98,2.89-1.46,4.35
		c-1.48,4.51-2.65,9.16-4.53,13.5c-1.56,3.61-3.88,6.9-6.01,10.24c-1.15,1.82-2.73,3.37-3.85,5.2c-1.81,2.97-1.18,4.96,1.13,7.61
		c6.28,7.21,11.76,14.95,14.43,24.32c1.57,5.52-0.2,9.31-5.68,11.81c-3.09,1.4-5.99,3.13-9.64,3.38c-3.54,0.24-6.55,8.51-3.98,11.62
		c4.57,5.52,2.36,10.04-0.96,14.78c-3.51,5.01-3.19,7.06,0.23,11.88c2.65,3.74,4.58,7.98,6.89,11.95c0.76,1.3,1.7,2.49,2.62,3.68
		c0.8,1.05,2.51,2.15,2.38,3.01c-0.27,1.73-1.14,3.77-2.46,4.83c-1.76,1.41-3.5,2.45-3.5,5.01c0,0.4-0.82,0.8-1.26,1.21
		c-0.38-0.41-0.9-0.77-1.12-1.26c-3.44-7.5-6.85-15-10.25-22.52c-0.34-0.76-0.54-2.22-0.86-2.24c-1.57-0.07-3.23-0.02-4.7,0.47
		c-1.52,0.51-2.93,1.46-4.24,2.43c-1.17,0.87-2.29,1.67-0.71,3.54c2.36,2.79,3.99,6.22,6.38,8.98c3,3.46,6.44,6.55,9.72,9.76
		c0.76,0.74,1.6,1.86,2.48,1.94c4.34,0.41,4.96,3.17,4.4,6.6c-0.61,3.75,2.49,5.67,3.96,8.38c0.11,0.19,2.1-0.21,2.74-0.83
		c2.64-2.54,5.13-5.23,7.58-7.97c0.25-0.28-0.02-1.59-0.36-1.75c-4.14-1.87-4.71-1.64-7.27,2.49c-0.08,0.13-0.09,0.32-0.2,0.42
		c-1.05,1.04-2.1,2.07-3.16,3.1c0.31-1.41,0.43-2.88,0.94-4.21c2.73-7.13,5.4-14.29,8.4-21.31c2.38-5.58,5.14-11.01,7.87-16.43
		c0.56-1.12,1.79-1.91,2.69-2.86c0.69-0.73,1.35-1.48,2.03-2.22c-1.09-0.35-2.21-1.08-3.25-0.97c-1.8,0.19-3.53,0.96-5.31,1.35
		c-0.41,0.09-0.94-0.4-1.42-0.62c0.3-0.26,0.59-0.53,0.9-0.77c7.6-6.25,11.54-3.33,16.15,1.13c5,4.83,5.04,5.96,1.71,12.48
		c-2.58,5.05-5.03,10.18-7.89,15.08c-1.6,2.74-4.02,4.99-5.84,7.62c-0.59,0.85-0.96,2.58-0.49,3.22c0.56,0.77,2.15,1.16,3.25,1.09
		c7.61-0.47,14.83-2.44,21.38-6.42c2.03-1.23,3.82-2.88,5.3-4.02c-0.85,5.1-3.57,6.79-10.36,9.85c-6.01,2.72-12.37,3.55-18.78,3.92
		c-3.95,0.23-6.48,2.4-9.08,4.82c-2.36,2.19-4.55,4.73-7.28,6.28c-0.87,0.49-3.41-1.52-4.87-2.76c-0.68-0.57-1.13-2.25-0.79-3.03
		c2.26-5.11-2.66-6.69-4.78-9.28c-3.62-4.42-8.12-8.1-12.08-12.26c-3.65-3.84-7.38-7.67-10.48-11.93c-1.73-2.38-2.32-5.62-3.32-8.51
		c-0.7-2.02-1.56-3.43-4.06-2.35c-0.63,0.27-1.68,0.38-2.16,0.04c-2.65-1.87-5.18-3.92-7.48-6.4c5.42,2.03,10.51,2.51,15.81,0.01
		c2.65-1.25,2.9,1.14,2.5,2.79c-0.61,2.5,1.02,2.66,2.57,3.42c1.78,0.87,2.41-0.22,2.75-1.37c1.72-5.87,5.72-10.3,9.33-14.96
		c0.66-0.86,1.91-1.34,2.96-1.8c2.79-1.23,3-2.61,1.32-5.21c-1.37-2.12-2.64-4.19-0.3-7.06c1.43-1.76,1.81-4.97,1.52-7.4
		c-0.47-3.9-1.72-7.74-2.98-11.49c-0.65-1.92-2.26-2.6-4.01-0.85c-7.01,6.96-14.9,5.13-22.56,1.78c-4.99-2.18-9.26-5.55-11.95-10.7
		c-2.34-4.48-5.3-5.25-9.57-1.94c-2.95,2.28-5.59,5.53-7.13,8.91c-1.74,3.82-2.83,8.27-2.88,12.46c-0.08,6.56,2.36,12.69,5.68,18.39
		c0.31,0.53,0.61,1.08,0.96,1.59c2.11,2.99,2.82,5.3-0.64,8.43c-3.66,3.32-1.76,8.05,3.83,10.38c4.37,1.82,9.06,2.85,13.41,4.72
		c2.33,1,3.82-0.04,5.65-0.75c1.32-0.52,2.41-0.59,2.3,1.49c-0.41,7.73,4.8,13.1,8.34,19.11c1.44,2.45,3.35,4.54,6.94,4.4
		c1.17-0.05,2.43,2.28,3.65,3.52C143.58,589.28,143.29,589.85,143,590.41"/>
	<path class="st0" d="M769.04,481.15c0.21,0.09,0.41,0.18,0.62,0.27c-0.01,0.31-0.06,0.63-0.02,0.93c0.11,0.89,0.25,1.78,0.38,2.66
		c0.85-0.58,2.25-1,2.47-1.76c0.93-3.24,1.54-6.58,2.16-9.9c0.08-0.45-0.49-1.02-0.76-1.53c-0.41,0.33-1,0.58-1.19,1.01
		C771.43,475.58,770.25,478.37,769.04,481.15 M830.16,453.74c-0.45-0.26-1.42-1.22-1.89-1.02c-1.31,0.57-2.34,1.72-3.59,2.45
		c-1.34,0.78-1.2,3.23-3.69,2.91c-0.74-0.09-1.72,1.6-2.59,2.47c1.16,0.74,2.33,2.12,3.48,2.1
		C826.66,462.56,829.82,459.24,830.16,453.74 M818.01,477.18c-0.41-0.08-0.82-0.17-1.22-0.25c-1.36,3.37-3.11,6.64-3.97,10.13
		c-0.86,3.5,1.28,4.75,4.89,3.32c0.06-0.02,0.37,0.44,0.49,0.71c0.17,0.39,0.28,0.82,0.42,1.22c0.3-0.43,0.89-0.88,0.85-1.27
		C819.04,486.41,818.51,481.8,818.01,477.18 M804.94,539.51c-0.28-6.11-2.08-7.89-7.36-8.22c-1.97-0.12-3.9-0.84-5.87-0.94
		c-0.91-0.05-2.05,0.55-2.7,1.23c-0.28,0.3,0.17,1.91,0.71,2.27c2.88,1.92,5.82,3.78,8.9,5.36c1.44,0.74,3.22,0.9,4.87,1.09
		C804.02,540.37,804.63,539.69,804.94,539.51 M801.74,569.58c-0.01-0.29,0.14-0.84-0.06-1.2c-0.72-1.31-1.55-2.55-2.34-3.82
		c-0.61,0.84-1.18,1.71-1.84,2.52c-0.26,0.32-0.66,0.61-1.05,0.75c-4.08,1.45-10.07-1.84-11.44-6c-0.33-1.02-1.62-1.72-2.47-2.57
		c-0.84,0.94-2.38,1.88-2.38,2.83c-0.01,1.67,0.62,3.52,1.49,5c3,5.06,7.92,6.93,13.49,7.58
		C798.52,575.06,801.6,572.81,801.74,569.58 M816.07,569.42c-0.3-1.09-0.5-1.99-0.8-2.85c-1.87-5.38-3.98-10.69-5.57-16.15
		c-1.34-4.58-3.69-7.61-8.68-8.04c-0.87-0.07-1.74-0.24-2.61-0.36c0.07,1-0.18,2.19,0.27,2.98c4.81,8.4,9.71,16.73,14.63,25.07
		c0.34,0.58,0.99,0.99,1.5,1.47C815.22,570.83,815.65,570.12,816.07,569.42 M783.85,591.16c5.02-0.68,10.12-0.99,15.03-2.13
		c7.29-1.69,10.84-7.13,5.89-15.07c-0.91-1.45-1.98-2.28-3.63-0.56c-2.1,2.18-4.77,2.3-7.72,2.04c-5.31-0.46-9.24-3.78-13.6-6.13
		c-1.06-0.57-2.15-3.59-1.7-4.08c2.97-3.24,0.6-5.34-1.54-6.78c-6.23-4.19-12.64-7.91-20.4-9.06c-8.05-1.19-14.92,3.9-15.71,11.99
		c-0.95,9.67,3.75,16.02,11.53,20.32C761.81,587.14,772.33,590.6,783.85,591.16 M776.12,476.21c-0.92,2.72-1.66,5.53-2.84,8.13
		c-0.49,1.09-1.93,1.76-2.93,2.62c-0.74-1.25-1.5-2.49-2.23-3.75c-0.46-0.79-0.86-1.62-1.29-2.43c-0.33,0.94-0.89,1.87-0.97,2.84
		c-0.59,7.45-0.51,14.86,1.3,22.19c0.29,1.17,0.25,2.71-0.29,3.74c-4.66,8.93-4.2,8.49,2.01,14.77c0.22,0.22,0.4,0.5,0.66,0.66
		c3.66,2.28,7.23,4.74,11.05,6.71c1.66,0.85,4.12,1.4,5.34-1.04c0.87-1.74-1.61-7.61-3.32-8.8c-2.02-1.4-3.98-2.9-5.91-4.41
		c-0.25-0.2-0.21-0.77-0.3-1.17c0.43,0,1.01-0.18,1.28,0.03c0.73,0.57,1.22,1.52,2,1.93c1.31,0.69,2.78,1.47,4.19,1.5
		c1.44,0.03,1.67-0.34,1.84,0.27c0.43,1.62,1.28,3.31,1.11,4.89c-0.37,3.45,1.42,3.8,4.12,3.84c7.13,0.09,14.25,0.05,20.92,3.45
		c2.71,1.38,3.38,0.55,2.52-2.69c-3.35-12.63-5.32-25.39-4.29-38.51c0.09-1.18-0.28-2.42-0.56-3.61
		c-2.84-12.43-11.51-19.24-22.92-22.91c-3.69-1.18-8.07-1.67-11.52,1.32c-0.93,0.8-1.65,3.52-1.57,3.56
		C776.65,470.89,775.27,473.68,776.12,476.21 M794.46,421.26c0.09,3.85,0.24,7.71,0.21,11.56c0,0.35-1.29,1.12-1.61,0.96
		c-2.03-1.03-3.89-2.4-5.93-3.4c-2.55-1.24-4.35,0.02-4.2,2.75c0.15,2.78-1.7,4.84-4.84,5.38c-3.59,0.62-4.14,1.52-2.38,4.72
		c0.87,1.58,2.1,3.27,3.61,4.13c3.97,2.28,8.05,4.45,12.31,6.08c7.15,2.73,14.79,2.59,22.12,1.54c6.5-0.93,12.35-4.11,15.72-10.34
		c0.32-0.58,1.84-1.91-0.35-2.42c-0.67-0.16-1.3-0.53-1.94-0.81c0.58-0.44,1.13-0.95,1.76-1.31c2.07-1.17,5.33-0.28,6.91,1.83
		c1.27,1.7,0.97,2.1-1.27,2.64c-0.68,0.17-1.64,1.38-1.59,2.04c0.36,4.28-0.74,8.2-2.34,12.08c-0.41,0.99-0.28,2.2-0.4,3.31
		c0.86-1.01,1.81-1.95,2.54-3.05c0.3-0.45-0.01-1.26,0.2-1.83c0.16-0.45,0.67-0.78,1.02-1.16c0.22,0.38,0.56,0.75,0.61,1.16
		c0.06,0.44-0.28,0.94-0.21,1.37c0.16,0.98,0.47,1.94,0.71,2.91c0.58-0.58,1.09-1.26,1.75-1.71c0.59-0.4,1.58-0.37,2.01-0.86
		c2.4-2.72,5-5.34,6.93-8.38c1.56-2.46,0.79-5.22,0.08-8.18c-1.24-5.16-4.47-7.8-8.92-9.06c-5.96-1.68-11.78-0.4-17.34,2.18
		c-0.66,0.31-1.41,0.4-2.12,0.59c0.07-0.8,0.01-1.64,0.22-2.41c1.59-5.91,3.82-11.69,3.36-17.99c-0.43-5.86-0.5-11.68-5.45-16.16
		c-4.73-4.28-10.49-4.08-14.26,1.03c-1.59,2.16-3.92,3.8-4.34,6.8c-0.06,0.44-1.77,0.65-2.72,0.97c-0.46-3.15-1.94-1.21-2.49-0.29
		c-1.51,2.56-2.71,5.31-4.38,8.67c4.37-2.32,4.38-2.33,6.31,1.91c0.32,0.69,0.48,1.46,0.71,2.2
		C794.48,420.9,794.47,421.08,794.46,421.26 M819.78,586.74c-1.46-6.33-4.75-11.43-8.87-16.57c-5.25-6.56-8.83-14.46-13.1-21.81
		c-0.84-1.44-1.51-2.98-2.26-4.47c-0.3,0.1-0.59,0.19-0.89,0.29c0.57,2.1,1.09,4.22,1.73,6.3c1.48,4.89,1.82,9.98,5.38,14.4
		c3.02,3.75,4.78,8.73,6.3,13.42c1.66,5.12-0.89,9.43-6.05,11.44c-6.65,2.59-13.42,4.07-20.63,2.22c-3.12-0.8-6.42-0.98-9.65-1.27
		c-7.71-0.69-14.55-4.03-21.11-7.6c-9.09-4.95-14.63-15.72-10.67-26.09c2.05-5.36,6.25-8.69,12.58-9.05
		c8.1-0.46,14.71,3.09,21.26,7.03c1.32,0.8,3.07,1.38,3.8,2.57c1.78,2.88,3.33,0.79,5.04,0.22c2.55-0.86,0.93-2.92,0.67-3.85
		c-1.99-7.26-4.29-14.44-6.64-21.6c-0.26-0.79-1.32-1.39-2.11-1.92c-4.07-2.71-8.39-4.97-11.11-9.42c-1.41-2.3-1.66-4.33-0.62-6.53
		c2.47-5.24,2.57-10.72,1.39-16.16c-2.41-11.1,0.17-21.14,6.29-30.31c3.2-4.79,8.02-7.9,13.39-10.08c1.24-0.5,2.32-1.37,3.48-2.07
		c-1.16-0.89-2.26-1.87-3.49-2.65c-3.72-2.33-8.21-3.66-10.24-8.13c-0.13-0.28-0.46-0.51-0.5-0.79c-0.92-6.82-5.65-12.13-7.4-18.59
		c-1.57-5.79,1.86-10.21,7.76-10.4c3.94-0.13,5.52,1.24,6.71,5.4c0.49,1.73,1.29,3.39,2.1,5.01c0.2,0.4,1.24,0.83,1.45,0.67
		c0.54-0.42,1.27-1.24,1.18-1.76c-1.89-9.79,3.12-17.17,8.83-24.01c3.07-3.69,7.64-5.68,12.45-6.67c1.21-0.25,2.42-0.47,3.62-0.75
		c2.13-0.49,1.83-0.92,0.52-2.61c-6.8-8.84-9.23-16.79-3.67-26.06c3.76-6.28,9.25-9.9,16.86-9.47c2.94,0.17,5.9,0.34,8.82,0.79
		c7.52,1.14,11.84,6.94,14.69,12.76c2.09,4.26,3.38,9.67,1.43,15.28c-1.71,4.89-3.81,8.71-8.51,11.07
		c-1.97,0.99-2.34,2.75-0.46,4.36c3.73,3.19,6.73,6.91,8.86,11.36c0.64,1.34,1.44,2,2.23-0.25c1.89-5.35,4.81-9.86,10.06-12.81
		c5.37-3.01,10.58-2.85,15.78-0.25c3.4,1.7,6.49,4,9.69,6.06c0.36,0.23,0.68,0.62,0.85,1.02c1.43,3.38,3.3,6.67,4.12,10.2
		c1.26,5.46,1.19,11.17-0.8,16.46c-4.18,11.06-11.52,14.41-22.82,12.13c-3.81-0.77-7.39-2.26-9.97-5.49
		c-0.45-0.56-1.26-0.83-1.9-1.23c-0.03,0.67,0.09,1.39-0.11,2c-3.09,9.52-6.05,19.16-16.59,23.4c-1.9,0.76-3.89,1.32-5.7,2.25
		c-2.09,1.08-4.12,2.44-3.95,5.24c0.23,3.85,0.34,7.73,0.93,11.53c0.87,5.62,2.4,11.15,3.07,16.79c0.33,2.74-0.11,5.86-1.15,8.42
		c-1.47,3.62-6.35,4.71-11.27,3.12c-1.91-0.62-3.81-1.28-5.62-2.11c-1.75-0.8-2.41-0.07-2.33,1.51c0.16,3.36-0.01,6.85,0.84,10.05
		c2.34,8.86,4.11,17.9,8.48,26.17c1.98,3.75,2.86,8.1,4.16,12.2c0.46,1.47-0.22,3.48,2.26,3.82c2.43,0.32,3.92-0.63,4.65-2.93
		c0.08-0.25,0.43-0.4,0.65-0.6l-0.07-0.11c-0.44,1.79-0.82,3.61-1.33,5.38c-0.49,1.71-1.04,3.08-2.08,0.16
		c-0.14-0.38-1.87-0.48-2.76-0.26c-4.97,1.25-10.46,7.88-10.5,12.92c-0.01,1.58,0.91,3.16,1.41,4.74c0.96-0.99,1.91-1.98,2.51-2.59
		c-0.43,2.76-0.93,6.02-1.44,9.28L819.78,586.74z"/>
	<path class="st0" d="M554.71,638.18c-1.1-1.37-1.94-3.25-3.37-3.98c-1.38-0.71-3.19,2.28-3.32,5.09c-0.1,2.17,0.94,3.12,3,3.15
		C553.57,642.48,554.03,640.79,554.71,638.18 M559.89,638.76c-0.87,2.05-2.02,4.03-2.55,6.16c-0.58,2.31-0.92,4.78-0.74,7.13
		c0.16,2.09,1.45,4.08,1.72,6.18c0.14,1.12-0.48,2.95-1.35,3.46c-1.43,0.85-3.08,0.24-3.68-1.64c-0.88-2.78-1.69-5.59-2.53-8.39
		c-0.26-0.87-0.45-1.78-0.83-2.6c-0.23-0.48-0.76-0.83-1.15-1.24c-0.27,0.47-0.73,0.93-0.78,1.42c-0.28,2.78-0.41,5.59-0.69,8.37
		c-0.28,2.72-1.97,4.02-3.93,2.59c-1.8-1.31-3.19-1.11-5.07-0.82c-2.42,0.37-4.73,0.15-4.72-3.44c0.01-1.05-1.25-2.96-1.98-2.99
		c-1.29-0.04-2.78,0.85-3.85,1.75c-0.73,0.61-0.61,2.4-1.35,2.81c-1.32,0.73-3.11,1.35-4.5,1.05c-1.62-0.35-1.34-1.83-0.78-3.41
		c1.42-4.04,2.42-8.22,3.61-12.34c1.32-4.57,2.72-9.11,4-13.68c0.42-1.5,0.95-2.69,2.78-2.33c1.66,0.32,3.32,0.52,3.64,2.81
		c1.21,8.49,2.54,16.96,3.83,25.43c0.09,0.61,0.05,1.37,0.4,1.77c0.45,0.5,1.24,0.71,1.87,1.04c0.19-0.51,0.51-1.01,0.54-1.53
		c0.41-7.99,0.79-15.98,1.17-23.98c0.2-4.31,0.19-4.31,4.4-4.08c3.37,0.19,6.72-0.14,9.57,2.65
		C559.27,633.18,559.69,635.6,559.89,638.76"/>
	<path class="st0" d="M312.91,655.23c-0.84,1.76-1.64,3.55-2.55,5.28c-0.4,0.75-1.04,1.38-1.57,2.07c-0.81-0.67-1.92-1.19-2.36-2.04
		c-0.93-1.84-1.52-3.85-2.25-5.79c-0.37,0.05-0.75,0.1-1.12,0.15c-0.09,2.56-0.17,5.12-0.27,7.67c-0.04,1.09-0.05,2.19-0.17,3.28
		c-0.23,2.12-1.82,2.58-3.4,2.07c-0.78-0.25-1.69-1.65-1.68-2.52c0.07-7.5,0.35-15,0.53-22.5c0.02-1.06-0.13-2.12-0.3-3.17
		c-0.25-1.65-1.1-3.71,1.47-4.01c1.91-0.23,4.18-0.9,4.64,2.72c0.39,3.11,2.16,6.07,3.42,9.05c0.32,0.76,1.03,1.36,1.55,2.03
		c0.56-0.71,1.35-1.34,1.63-2.14c1.07-3.03,1.94-6.13,2.95-9.19c0.33-0.99,0.62-2.24,1.35-2.78c0.88-0.64,2.33-1.03,3.35-0.79
		c0.66,0.15,1.39,1.63,1.42,2.54c0.09,2.92-0.12,5.86-0.22,8.79c-0.19,5.63-0.39,11.26-0.59,16.89c-0.03,0.94,0.24,2.19-0.25,2.74
		c-0.82,0.91-2.08,1.61-3.27,1.87c-0.41,0.09-1.66-1.41-1.68-2.21c-0.09-3.26,0.14-6.54,0.25-9.81
		C313.51,655.36,313.21,655.29,312.91,655.23"/>
	<path class="st0" d="M609.48,648.45c-0.12-0.02-0.23-0.03-0.35-0.05c0.07-2.18,0.14-4.36,0.23-6.54c0.09-2.02-0.64-3.29-2.85-3.42
		c-2.54-0.15-2.11,1.73-2.21,3.19c-0.34,4.85-0.54,9.72-1.02,14.56c-0.14,1.4-1.13,2.78,1.13,3.14c1.81,0.29,3.4,0.2,3.72-2.21
		C608.5,654.22,609.02,651.34,609.48,648.45 M615.4,644.89c-0.47,4.62-0.84,9.25-1.44,13.86c-0.48,3.68-3.98,6.43-8.33,6.83
		c-0.77,0.07-1.56-0.02-2.34-0.05c-6.07-0.19-5.86-0.43-5.06-6.54c0.79-6.01,0.54-12.16,0.87-18.24c0.11-2.14,0.34-4.34,0.99-6.36
		c0.3-0.93,1.74-2.12,2.66-2.12c2.27,0.01,4.54,0.61,6.8,1.01c2.8,0.5,5.71,4.03,5.97,7.39
		C615.63,642.07,615.45,643.48,615.4,644.89"/>
	<path class="st0" d="M438.98,637.3c-0.22,6.26-0.28,12.53-0.79,18.76c-0.1,1.24-1.95,2.34-2.99,3.5c-0.8-1.14-2.14-2.21-2.3-3.43
		c-0.28-2.14,0.19-4.38,0.27-6.58c0.08-2.13-0.02-4-2.98-4.21c-2.98-0.21-2.8,1.65-2.86,3.56c-0.07,2.47-0.17,4.95-0.25,7.42
		c-0.05,1.83-0.76,3-2.8,2.9c-2.07-0.11-2.52-1.42-2.44-3.2c0.2-4.42,0.25-8.84,0.56-13.24c0.29-4.15,0.96-8.28,1.22-12.44
		c0.13-2.07,0.84-3.35,2.91-3.37c2.51-0.03,2.43,1.86,2.36,3.64c-0.08,2.18-0.16,4.37-0.21,6.56c-0.03,1.41-0.23,2.92,1.95,2.93
		c1.89,0.01,2.98-0.8,3.08-2.71c0.12-2.03,0.1-4.06,0.23-6.09c0.07-1.06-0.04-2.53,0.58-3.06c1.01-0.88,2.55-1.14,3.87-1.66
		c0.29,0.91,0.82,1.82,0.84,2.74c0.03,2.65-0.14,5.31-0.23,7.96C439,637.3,438.99,637.3,438.98,637.3"/>
	<path class="st0" d="M459.12,657.35c-0.64,0.5-1.45,1.58-2.41,1.74c-0.94,0.16-2.11-0.5-3.04-1.05c-0.43-0.25-0.63-1.05-0.75-1.64
		c-0.39-1.87-0.63-3.9-3.25-3.69c-2.34,0.19-3.46,1.63-3.9,3.93c-0.17,0.86-1.11,1.98-1.91,2.2c-1.11,0.3-2.71,0.23-3.53-0.41
		c-0.52-0.4-0.19-2.2,0.09-3.27c2.22-8.33,4.51-16.63,6.8-24.94c0.24-0.88,0.43-2.02,1.05-2.49c1.03-0.78,2.38-1.39,3.64-1.5
		c0.45-0.04,1.35,1.5,1.53,2.42c1.39,6.93,2.65,13.88,3.98,20.82C457.88,651.88,458.45,654.27,459.12,657.35"/>
	<path class="st0" d="M256.67,664.22c-0.06,1.56-0.18,3.13-0.14,4.69c0.04,1.87-0.83,2.48-2.59,2.27c-1.6-0.19-2.44-0.5-2.17-2.58
		c0.53-4.03,0.67-8.12,0.81-12.19c0.15-4.4,0.08-8.82,0.19-13.23c0.03-1.14,0.01-2.55,0.63-3.35c0.59-0.76,2-0.89,3.04-1.3
		c0.16,0.73,0.43,1.45,0.47,2.19c0.15,2.62,0.3,5.25,0.32,7.87c0.01,2.04,0.67,3.3,2.89,3.42c2.57,0.14,2.1-1.78,2.19-3.23
		c0.17-2.81,0.41-5.63,0.28-8.44c-0.12-2.65,2.09-2.14,3.37-2.93c0.63,1.04,1.83,2.09,1.81,3.12c-0.15,8.8-0.52,17.61-0.83,26.41
		c-0.05,1.58,0.01,3.38-2.12,3.55c-1.53,0.12-3.57,0.77-2.88-2.47c0.53-2.49-0.06-5.21,0.02-7.82c0.06-1.88-0.4-2.88-2.54-2.95
		c-2.25-0.07-2.63,1.09-2.57,2.89c0.05,1.36,0.05,2.72,0.07,4.08C256.82,664.22,256.74,664.22,256.67,664.22"/>
	<path class="st0" d="M333.85,649.1c-0.06-0.01-0.12-0.01-0.18-0.01c0.09-2.48,0.29-4.97,0.19-7.44c-0.03-0.77-0.75-1.91-1.4-2.13
		c-0.62-0.21-1.79,0.38-2.31,0.98c-0.65,0.74-1.19,1.84-1.24,2.81c-0.28,4.57-0.41,9.16-0.53,13.74c-0.03,1.3-0.49,2.86,1.73,3.08
		c2.14,0.21,2.76-1.21,2.99-2.72C333.51,654.67,333.62,651.87,333.85,649.1 M339.57,644.41c-0.94,5.51-1.42,11.15-2.94,16.49
		c-1.61,5.7-6.92,6.87-11.75,3.53c-1.57-1.09-1.91-2.15-1.91-3.81c0.02-5.59-0.11-11.18-0.07-16.77c0.03-4.12,3.57-8.81,7.28-9.91
		c5.01-1.48,9.03,1.46,9.07,6.65c0.01,1.25-0.08,2.5-0.12,3.75C339.28,644.36,339.43,644.39,339.57,644.41"/>
	<path class="st0" d="M494.2,657.96c-5.03-0.2-7.31-1.99-7.87-6.69c-0.12-1.05,0.74-2.85,1.61-3.22c1.19-0.51,3.25-0.79,3.28,1.8
		c0.02,1.89,1.09,3.12,2.94,2.66c1.13-0.28,2.79-1.45,2.86-2.34c0.14-1.65-0.57-3.44-1.22-5.05c-0.19-0.46-1.4-0.47-2.12-0.75
		c-6.74-2.7-8.59-10.73-3.72-16.12c1.69-1.87,6.74-2.49,9.66-1.19c2.5,1.11,4.77,5,4.18,7.58c-0.16,0.73-1.14,1.79-1.74,1.79
		c-1.29,0-2.59-0.53-3.84-1c-0.27-0.1-0.16-0.97-0.45-1.25c-0.89-0.86-1.89-1.61-2.85-2.41c-0.74,1.02-2.09,2.05-2.08,3.07
		c0.02,1.24,1.08,2.54,1.89,3.67c0.24,0.33,1.2,0.09,1.8,0.22c4.2,0.93,6.43,3.59,6.09,7.87c-0.22,2.67-0.53,5.59-1.76,7.88
		C498.81,658.31,498.49,658.13,494.2,657.96"/>
	<path class="st0" d="M842.91,544.43c2.16-3.53,8.49-5.77,12.85-4.81c9.29,2.05,15.46,7.49,17.52,16.77
		c0.8,3.65,0.09,7.63,0.09,11.46c0,0.97,0.09,1.94,0.14,2.91c0.91-0.47,2.02-0.75,2.7-1.45c2.32-2.34,4.49-4.82,6.72-7.24
		c0.26,0.22,0.52,0.44,0.77,0.65c-2.06,2.6-3.68,5.81-6.27,7.68c-5.36,3.87-7.84,9.75-11.62,14.71
		c-7.39,9.71-16.84,15.9-29.14,17.06c-6.88,0.65-17.26-6.1-16.89-15.43l-0.08,0.1c2.02,6.11,5.24,11.31,12.01,12.65
		c4.86,0.96,9.88,0.66,14.54-1.45c1.48-0.67,2.79-1.71,4.18-2.59c-1.57-0.74-3.06-1.82-4.71-2.15c-3.96-0.8-7.71-1.87-10.67-4.8
		c4.92,1.63,9.78,3.48,14.78,4.78c1.69,0.44,3.96-0.04,5.56-0.86c6-3.09,9.27-8.73,12.43-14.36c2.73-4.85,4.23-9.81,0.65-14.96
		c1,0.49,1.99,0.99,2.99,1.48c0.32-1.13,0.82-2.25,0.9-3.4c0.06-0.87-0.61-1.76-0.64-2.66c-0.24-7.92-8.44-16.77-18.31-16.93
		c-4.01-0.06-7.08,1.86-10.61,2.76L842.91,544.43z"/>
	<path class="st0" d="M347.91,643.92c-0.44,3.69-1.05,7.38-1.22,11.09c-0.05,1.09,1.11,2.25,1.71,3.37
		c0.92-0.67,1.89-1.29,2.72-2.06c0.27-0.25,0.22-0.89,0.25-1.35c0.44-6.18,0.85-12.36,1.3-18.54c0.08-1.06-0.05-2.35,0.5-3.1
		c0.71-0.95,1.98-1.87,3.08-1.97c0.59-0.06,1.97,1.65,1.93,2.51c-0.22,4.88-0.69,9.74-1.22,14.6c-0.36,3.37-0.71,6.77-1.49,10.06
		c-0.81,3.42-3.86,4.77-6.85,5.49c-3.51,0.84-6.9-2.1-6.71-5.7c0.42-7.99,0.99-15.98,1.66-23.96c0.06-0.66,1.21-1.57,2-1.76
		c1.31-0.32,2.45,0.12,2.36,1.92c-0.16,3.12-0.23,6.25-0.34,9.37C347.7,643.9,347.8,643.91,347.91,643.92"/>
	<path class="st0" d="M586.35,664c-0.31-0.01-0.62-0.02-0.94-0.03c-6.54-0.23-6.41-0.22-5.77-6.56c0.4-4.02,0.21-8.09,0.52-12.12
		c0.3-4,0.83-8,1.42-11.97c0.1-0.68,1.05-1.81,1.54-1.77c4.01,0.32,8,0.81,11.98,1.41c0.4,0.06,0.94,1.21,0.88,1.8
		c-0.08,0.79-0.58,2.1-1.07,2.18c-1.56,0.27-3.2,0.09-4.81,0.06c-1.46-0.02-3.59-0.83-3.42,1.68c0.14,2.1-2.12,5.16,1.85,6.16
		c0.58,0.14,1.22,0.51,1.72,0.38c3.56-1,3.45,1.25,3.48,3.64c0.03,1.91-0.91,2.46-2.57,2.33c-0.78-0.06-1.55-0.19-2.32-0.24
		c-1.9-0.12-3.77-0.42-3.8,2.56c-0.02,2.49-0.14,4.79,3.05,5.25c1.23,0.18,2.59-0.1,3.71,0.3c0.92,0.33,2.33,1.5,2.22,2.05
		c-0.21,1.1-1.16,2.68-2.08,2.9c-1.76,0.41-3.71,0.01-5.59-0.06C586.35,663.96,586.35,663.98,586.35,664"/>
	<path class="st0" d="M370.63,653.52c0.51-3.18-1.38-4.09-3.17-4.55c-3.36-0.87-6.28-2.16-6.73-6c-0.45-3.87,0.72-7.27,3.39-10.31
		c2.41-2.74,5.23-2.52,8.1-1.74c2.83,0.77,4.78,3.71,4.61,6.81c-0.06,0.97-1.09,2.61-1.79,2.67c-1.33,0.12-3.56-0.33-3.93-1.18
		c-0.69-1.58-1.11-3.14-3.01-2.39c-1.03,0.41-2.36,2.07-2.22,2.95c0.18,1.11,1.65,2.09,2.7,2.97c0.69,0.59,1.59,0.98,2.45,1.32
		c5.39,2.11,4.72,6.61,4.39,10.99c-0.29,3.82-3.16,5.61-6.08,6.89c-4.37,1.91-9.75-1.54-10.03-6.26c-0.06-0.91,1.02-2.63,1.69-2.69
		c1.3-0.12,3.67,0.44,3.83,1.13c0.44,1.87,1.11,3.15,2.94,2.45C368.94,656.13,369.69,654.58,370.63,653.52"/>
	<path class="st0" d="M387.83,629.29c1.25,0.04,2.59-0.17,3.72,0.21c0.96,0.33,2.31,1.34,2.33,2.09c0.03,0.89-0.99,2.19-1.89,2.63
		c-1.03,0.5-2.43,0.33-3.67,0.3c-2.11-0.06-3.77,0.33-3.76,2.94c0.01,3.54,1.12,5.27,3.81,4.86c3.25-0.5,3.64,0.79,3.38,3.49
		c-0.21,2.2-1.6,1.86-2.99,1.91c-2.03,0.06-4.13,0.04-4.7,2.69c-0.91,4.18,0.58,5.85,4.87,5.04c1.74-0.33,3.48-1.31,4.14,1.15
		c0.74,2.74-1.52,3.46-3.42,4.11c-1.45,0.49-3.01,0.71-4.53,0.9c-5.97,0.76-6.8,0.12-6.47-5.9c0.43-7.86,1.18-15.7,1.72-23.56
		c0.15-2.15,1.09-3.14,3.24-3.01C385.02,629.22,386.43,629.24,387.83,629.29"/>
	<path class="st0" d="M272.41,660.38c-0.16-5.86-0.47-11.72-0.44-17.57c0.03-5.27,0.19-5.19,5.24-5.22c2.3-0.01,4.59-0.46,6.88-0.64
		c1.59-0.12,2.74,0.28,2.6,2.3c-0.11,1.66-0.09,3.16-2.46,2.96c-0.88-0.07-1.93,0.68-2.67,0.41c-3.07-1.13-4.4-0.13-4.52,3.06
		c-0.14,3.83,0.65,4.88,4.57,5.24c1.78,0.16,3.59,0.14,3.58,2.61c-0.02,2.77-2.01,2.6-3.96,2.67c-1.15,0.04-3.02,0.17-3.29,0.8
		c-0.75,1.79-0.85,3.85-1.2,5.81c1.82,0.32,3.68,1.03,5.45,0.86c3.25-0.31,4.19,0.26,3.44,3.1c-0.18,0.68-1.02,1.53-1.69,1.68
		c-2.99,0.65-6.04,1.05-9.06,1.59c-2.68,0.48-3.22-1.4-3.26-3.27c-0.05-2.12,0.38-4.25,0.61-6.38
		C272.29,660.39,272.35,660.38,272.41,660.38"/>
	<path class="st0" d="M673.82,660.02c-0.36,0.27-1.05,1.18-1.71,1.17c-1.06-0.03-2.22-0.51-3.11-1.13
		c-0.52-0.36-0.64-1.37-0.82-2.11c-0.28-1.16-0.04-2.54-2.11-2.22c-1.63,0.25-2.81,0.38-3.25,2.41c-0.3,1.37-1.35,2.72-2.42,3.71
		c-0.58,0.53-2.2,0.7-2.77,0.27c-0.55-0.41-0.69-1.92-0.42-2.77c2.01-6.27,4.26-12.46,6.25-18.74c0.79-2.48,0.9-5.17,1.75-7.62
		c0.35-0.99,1.9-2.25,2.78-2.16c0.86,0.08,2.12,1.64,2.27,2.69c0.9,6.24,1.5,12.53,2.27,18.79
		C672.84,654.73,673.34,657.13,673.82,660.02"/>
	<path class="st0" d="M514.39,626.17c1.25,0.04,2.49,0.1,3.74,0.13c1.94,0.05,3.76,0.05,3.9,2.8c0.12,2.43-0.31,3.71-3.22,3.52
		c-2.61-0.17-2.63,2.09-2.7,4.01c-0.22,6.24-0.38,12.48-0.73,18.71c-0.06,1.06-0.72,2.61-1.54,2.98c-0.9,0.41-2.73,0.14-3.38-0.56
		c-0.78-0.83-1.08-2.45-1.01-3.69c0.36-5.94,1.01-11.86,1.36-17.8c0.12-2.06-0.37-4.1-3.19-4.19c-1.91-0.06-2.49-1.46-2.03-2.91
		c0.36-1.13,1.34-2.66,2.29-2.87c2.08-0.46,4.32-0.19,6.5-0.22C514.39,626.11,514.39,626.14,514.39,626.17"/>
	<path class="st0" d="M565.37,652.28c0.56-3.82,1.34-7.63,1.59-11.47c0.14-2.08,1.02-4.98-2.95-5.23c-2.03-0.13-2.76-1.94-2.1-3.85
		c0.24-0.71,1.22-1.72,1.8-1.68c4.23,0.26,8.48,0.6,12.65,1.31c0.76,0.13,1.53,2.02,1.74,3.19c0.33,1.82-1.18,1.98-2.46,1.78
		c-3.01-0.45-3.16,1.36-3.3,3.63c-0.44,6.75-1.08,13.49-1.6,20.23c-0.13,1.69-0.4,3.42-2.52,2.98c-1.48-0.3-3.31-0.75-2.83-3.35
		c0.46-2.43,0.25-4.99,0.34-7.49C565.62,652.32,565.49,652.3,565.37,652.28"/>
	<path class="st0" d="M470.44,626.54c1.4,0.05,2.9-0.18,4.19,0.24c1.02,0.33,2.5,1.45,2.49,2.2c-0.02,1.01-1.14,2.7-2.02,2.86
		c-3.52,0.64-4.21,2.69-4.2,5.88c0.02,5.77-0.35,11.55-0.54,17.33c-0.07,1.92-0.02,4.1-2.8,3.78c-2.67-0.31-3.02-1.71-2.66-4.55
		c0.79-6.33,0.63-12.78,0.91-19.17c0.07-1.7-0.41-2.7-2.29-2.65c-2.04,0.05-3.48-0.78-3.05-3.03c0.34-1.79,0.74-3.41,3.62-2.49
		c1.84,0.59,4.19-0.43,6.31-0.73C470.41,626.31,470.42,626.42,470.44,626.54"/>
	<path class="st0" d="M103.98,611.21c4.84,5.49,10.37,3.05,15.21,2.56c6.96-0.71,13.8-2.74,20.63-4.46
		c2.14-0.54,4.07-1.91,6.13-2.83c0.44-0.2,1.1-0.21,1.53-0.02c0.21,0.09,0.26,0.86,0.18,1.29c-0.75,3.88-3.57,5.62-7.7,6
		c-3.71,0.34-7.41,1.39-10.96,2.58c-5.98,2-11.8,4.61-18.24,4.72c-4.84,0.08-5.75-0.91-6.13-5.81
		C104.55,614.22,104.31,613.21,103.98,611.21"/>
	<path class="st0" d="M416.69,627.3c1.66,0.88,4.85-1.21,4.71,2.77c-0.05,1.48-0.07,2.72-2.17,2.78c-2.9,0.08-3.67,1.88-3.8,4.66
		c-0.29,6.17-1.13,12.32-1.45,18.49c-0.11,2.22-1.25,2.99-2.97,3.52c-1.71,0.52-2.73,0.15-2.4-1.94c0.45-2.88,0.98-5.76,1.22-8.66
		c0.28-3.41,0.3-6.85,0.39-10.27c0.06-2.2,0.94-4.84-3.03-4.67c-0.62,0.02-1.95-2.08-1.82-3.05c0.15-1.16,0.39-3,2.77-2.91
		C410.98,628.11,413.84,627.56,416.69,627.3"/>
	<path class="st0" d="M649.24,632.91c0.2,0.16,1.81,0.78,2.04,1.74c0.45,1.84-0.5,3.31-2.77,3.34c-2.27,0.03-2.73,1.53-2.88,3.45
		c-0.49,6.5-1.07,13-1.61,19.5c-0.04,0.47-0.05,0.94-0.07,1.4c-0.07,2.05-1.35,2.75-3.12,2.52c-2.09-0.27-2.08-1.78-1.93-3.53
		c0.59-6.58,0.98-13.18,1.6-19.76c0.2-2.15-0.19-3.19-2.6-3.13c-0.72,0.02-2.18-1.29-2.09-1.5c0.51-1.28,1.24-3.29,2.15-3.44
		C641.3,632.98,644.73,633.09,649.24,632.91"/>
	<path class="st0" d="M239.38,659.53c0.11-3.12,0.37-6.25,0.27-9.37c-0.07-2.02,0.95-5.23-3.37-4.34c-0.4,0.09-1.7-2.03-1.77-3.17
		c-0.05-0.83,1.15-2.4,1.94-2.51c3.51-0.47,7.08-0.65,10.63-0.66c0.94,0,1.89,0.96,2.83,1.49c-0.68,1.21-1.3,3.4-2.07,3.46
		c-4.04,0.27-3.72,3.07-3.81,5.71c-0.17,4.94-0.27,9.88-0.42,14.82c-0.05,1.56-0.42,3.17-0.14,4.66c0.43,2.29-1.41,2.28-2.52,2.49
		c-0.48,0.09-1.8-1.44-1.82-2.26c-0.1-3.43,0.15-6.87,0.27-10.3C239.39,659.53,239.39,659.53,239.38,659.53"/>
	<path class="st0" d="M697.75,637.01c-0.52,4.14-1.22,8.27-1.51,12.43c-0.3,4.42,0.08,4.56,4.55,4.07c1.41-0.15,3.33-0.72,3.53,1.77
		c0.17,2.03-0.11,4.01-2.59,4.13c-3.1,0.15-6.23,0.01-9.33-0.28c-0.65-0.06-1.74-1.35-1.69-1.99c0.51-6.65,1.21-13.29,1.89-19.93
		c0.2-1.97,0.57-3.93,0.74-5.91c0.15-1.82,0.31-3.6,2.77-3.43c2.5,0.17,1.73,2,1.64,3.49c-0.11,1.87-0.14,3.75-0.21,5.62
		C697.61,636.99,697.68,637,697.75,637.01"/>
	<path class="st0" d="M676.6,654.6c0.22-6.26,0.44-12.51,0.66-18.77c0.04-1.09,0.19-2.19,0.1-3.27c-0.17-2.24,1.23-3.15,3.02-3.25
		c2.18-0.12,2.36,1.59,2.22,3.25c-0.52,6.17-1.03,12.33-1.61,18.5c-0.39,4.14-0.45,4.13,3.43,3.59c1.49-0.21,3.38-1.61,3.88,1.26
		c0.46,2.62-0.99,3.65-3.3,3.98c-1.67,0.24-3.34,0.57-5.02,0.75c-4.03,0.43-4.69-0.23-4.37-4.22c0.05-0.62,0.12-1.24,0.19-1.85
		C676.06,654.58,676.33,654.59,676.6,654.6"/>
	<path class="st0" d="M274.45,417.2c-1.09,1.88-1.77,4.33-3.38,5.51c-2.36,1.74-1.92,3.07,0.08,3.79c4.01,1.44,1.95,4.42,1.86,6.62
		c-0.11,2.58-2.36,3.88-4.79,4.08c-0.67,0.06-1.84-1.19-2.13-2.07c-2.17-6.46-2.16-12.95-0.13-19.49c0.75-2.42,1.27-4.84,4.51-4.72
		C272.88,411.02,273.96,413.01,274.45,417.2"/>
	<path class="st0" d="M633.02,640.02c-0.41,7.09-0.77,14.18-1.26,21.27c-0.27,3.96-2.23,5.32-4.79,3.31
		c-0.83-0.65-1.28-2.31-1.21-3.47c0.17-3.06,0.78-6.09,1.1-9.15c0.55-5.23,1.19-10.46,1.44-15.71c0.14-2.84,2.03-2.16,3.54-2.38
		c2.01-0.29,1.76,1.19,1.75,2.42c-0.01,1.25-0.08,2.49-0.12,3.74C633.32,640.03,633.17,640.02,633.02,640.02"/>
	<path class="st0" d="M126.89,418.27c-0.27,0.32-0.49,0.85-0.87,1c-3.61,1.45-3.75,5.38-5.77,7.97c-0.27,0.34-0.15,1.06-0.45,1.29
		c-1.65,1.26-3.37,2.41-5.07,3.6c0.32-1.71,0.44-3.5,1-5.13c1.47-4.25,4.49-7.3,8.23-9.61c0.64-0.4,1.76-0.06,2.65,0.02
		C126.73,417.42,126.79,417.93,126.89,418.27"/>
	<path class="st0" d="M119.54,593.04c-5.37,1.66-9.66,3.11-14.02,4.28c-2.13,0.57-2.62,1.87-2.66,3.75
		c-0.06,2.77-0.18,5.54-0.27,8.16C98.54,595.03,106.94,591.42,119.54,593.04"/>
	<path class="st0" d="M131.89,529.13c-1.8,1.27-3.62,2.88-5.72,3.93c-1.5,0.76-4.7-1.69-5.27-3.74c-0.2-0.73-0.13-1.54-0.2-2.32
		c-0.05-0.49-0.14-0.98-0.21-1.48c0.43,0.19,0.91,0.3,1.26,0.58c0.33,0.27,0.48,0.74,0.75,1.08c2.92,3.5,3.21,3.53,7.19,0.99
		c0.46-0.29,1.03-0.42,1.57-0.55C131.3,527.62,131.48,528.14,131.89,529.13"/>
	<path class="st0" d="M108.55,517.08c-0.21,2.17-2.73,3.61-4.68,3.07c-2.46-0.68-4.9-4.52-4.39-7.03c0.07-0.35,0.67-0.9,0.9-0.84
		c0.53,0.14,1.35,0.52,1.41,0.91c0.54,3.35,2.06,4.61,5.37,2.97C107.44,516.02,108.18,516.83,108.55,517.08"/>
	<path class="st0" d="M322.13,429.84c-2.69-0.75-4.63-1.24-6.52-1.86c-0.45-0.15-0.76-0.72-1.13-1.1c0.47-0.38,0.88-0.95,1.42-1.11
		C318.46,425,320.33,426.14,322.13,429.84"/>
	<path class="st0" d="M833.97,557.32c1.27-5.48,3.35-10.4,8.94-12.89l-0.1-0.07c-2.97,4.29-5.94,8.57-8.91,12.86L833.97,557.32z"/>
	<path class="st0" d="M108.43,507.14c-0.64,0.73-0.88,1.21-1.26,1.37c-0.66,0.28-1.4,0.45-2.12,0.51c-1.17,0.11-2.34,0.13-3.51,0.07
		c-0.08,0-0.24-1.36-0.14-1.39c1.46-0.47,2.95-0.94,4.46-1.16C106.6,506.44,107.4,506.88,108.43,507.14"/>
	<path class="st0" d="M143,590.41c0.29-0.57,0.59-1.13,0.88-1.7c0.53,0.91,1.07,1.81,1.6,2.72c0.49,0.86,0.96,1.73,1.45,2.59
		c-1.6,0.17-3.19,0.35-4.79,0.52c0.2-1.09,0.4-2.18,0.61-3.26C142.79,590.98,142.91,590.7,143,590.41"/>
	<path class="st0" d="M128.41,518.42c-1.29,0.41-2.55,0.97-3.87,1.17c-0.65,0.1-1.4-0.45-2.1-0.7c0.9-0.82,1.68-2.04,2.73-2.34
		c0.91-0.26,2.12,0.53,3.19,0.85C128.38,517.74,128.4,518.08,128.41,518.42"/>
	<path class="st0" d="M159.78,437.07c-2.33,0.99-3.7,1.66-5.13,2.11c-0.34,0.11-0.92-0.51-1.38-0.8c1.25-0.95,2.44-1.99,3.79-2.78
		C157.35,435.44,158.19,436.18,159.78,437.07"/>
	<path class="st0" d="M804.83,420.03c-0.21-1.8-0.23-2.68-0.42-3.53c-0.34-1.46,0.66-3.82-2.05-3.85c-2.29-0.02-3.49,1.44-4.11,3.64
		c-1.02,3.62-1.77,7.2-0.38,10.88c0.19,0.5,0.43,0.99,0.64,1.48c0.37-0.45,1.07-0.92,1.05-1.34c-0.17-2.75,0.95-4.11,3.72-4.7
		C804.1,422.45,804.55,420.54,804.83,420.03 M794.48,420.72c1.09-2.78,2.47-5.48,3.19-8.35c0.63-2.52,2.38-3.14,4.34-3.51
		c2.51-0.48,2.97,1.72,3.74,3.37c0.33,0.7,0.83,1.45,0.79,2.16c-0.37,5.71-0.63,11.44-1.46,17.1c-0.2,1.35-2.26,2.81-3.78,3.39
		c-0.64,0.25-2.58-1.43-3.1-2.59c-1.16-2.63-1.78-5.49-2.66-8.24c-0.3-0.94-0.72-1.84-1.08-2.77
		C794.47,421.08,794.48,420.9,794.48,420.72"/>
	<path class="st0" d="M445.88,416.74c0.81-2.87,1.46-6.06,2.67-9.01c0.47-1.16,2.2-2.48,3.35-2.49c1.16,0,2.93,1.32,3.37,2.47
		c1.99,5.14,1.76,10.47,0.23,15.7c-0.32,1.1-1.25,2.17-2.16,2.94c-3.15,2.68-5.43,1.99-6.35-1.99
		C446.44,421.99,446.27,419.52,445.88,416.74"/>
	<path class="st0" d="M424.45,489.35c-0.59-1.87-0.92-4-1.91-5.77c-0.89-1.6-2.79-1.34-3.07,0.4c-0.54,3.38-0.56,6.86-0.55,10.3
		c0,0.69,1.02,1.61,1.78,1.95c0.33,0.15,1.46-0.77,1.77-1.41C423.22,493.2,423.71,491.47,424.45,489.35 M428.51,490.34
		c-0.67,1.87-1.26,4.63-2.59,6.95c-1.77,3.09-5.83,3.09-7.45,0.04c-2.25-4.22-3.23-8.67-0.77-13.31c1.39-2.61,3.25-4.04,6.27-3.85
		c2.99,0.19,2.94,2.92,3.8,4.71C428.4,486.19,428.22,487.89,428.51,490.34"/>
	<path class="st0" d="M437.75,496.66c-0.02-0.37,0.21-1.76-0.28-2.79c-0.61-1.26-1.84-2.22-2.8-3.32c-0.8,0.93-1.75,1.76-2.35,2.8
		c-0.58,1.02-0.91,2.22-1.14,3.38c-0.55,2.7,0.81,7.63,2.1,7.98C435.19,505.23,437.55,501.39,437.75,496.66 M441.99,497.23
		c-0.16,3.81-0.91,7.35-4.6,9.44c-2.3,1.3-4.57,1.16-6.28-0.87c-2.51-2.95-2.2-11.96,0.48-14.83c1.43-1.53,2.84-3.64,5.47-2.69
		c2.85,1.03,4.22,3.43,4.99,6.16C442.29,495.3,442.02,496.3,441.99,497.23"/>
	<path class="st0" d="M268.25,496.63c0.15-0.85,0.33-1.46,0.36-2.07c0.11-3.13-0.84-3.64-4.16-3.67c-3.29-0.02-4.58,1.74-5.64,4.39
		c-1.4,3.5-1.14,6.76,1.55,9.34c1.47,1.41,3.56,1.83,5.22-0.28C267.43,501.98,268.92,499.54,268.25,496.63 M256.42,497.93
		c1.18-2.58,2.14-5.29,3.61-7.7c1.57-2.57,4.18-3.05,7-2.22c3.15,0.93,4.9,4.01,4.62,6.34c-0.49,4.08-2.31,8.09-4.07,11.9
		c-1.14,2.47-3.69,3.14-6.39,2.41c-2.66-0.71-3.49-2.92-3.89-5.23c-0.29-1.67-0.1-3.42-0.12-5.14
		C256.92,498.18,256.67,498.06,256.42,497.93"/>
	<path class="st0" d="M612.61,495.25c0.11-0.02,0.23-0.04,0.34-0.06c-0.35-2.12-0.4-4.35-1.16-6.3c-0.54-1.36-2.07-2.33-3.16-3.48
		c-1.22,1.32-3.15,2.47-3.5,3.99c-0.5,2.13-0.09,4.6,0.39,6.82c0.53,2.46,0.93,5.82,4.5,5.25c2.94-0.47,2.42-3.49,2.57-5.76
		C612.61,495.57,612.61,495.41,612.61,495.25 M602.93,492.8c0.32-1.79,0.2-3.85,1.07-5.31c0.92-1.53,2.74-3.39,4.25-3.46
		c1.56-0.07,3.8,1.46,4.72,2.93c2.71,4.33,2.28,9.15,0.75,13.81c-0.96,2.94-4.19,3.83-6.7,2.02
		C603.59,500.33,602.72,496.85,602.93,492.8"/>
	<path class="st0" d="M594.71,487.2c-0.05,1.39-0.46,2.9-0.04,4.12c0.38,1.09,1.68,1.86,2.58,2.77c0.46-0.9,1.14-1.75,1.32-2.7
		c0.26-1.35,0.39-2.8,0.16-4.14c-0.39-2.19-1.11-4.31-1.69-6.46C594.04,482.1,594.88,484.86,594.71,487.2 M600.48,487.93
		c-0.35,1.94-0.57,4.27-1.24,6.46c-0.3,1-1.54,2.49-2.21,2.42c-1.16-0.12-2.55-1.05-3.24-2.06c-2.08-3.08-1.77-11.33,0.54-14.1
		c0.78-0.93,2.31-1.75,3.44-1.69c0.8,0.04,1.94,1.56,2.18,2.59C600.4,483.49,600.32,485.54,600.48,487.93"/>
	<path class="st0" d="M782.97,487.11c0.36,1.3,0.64,3.14,1.41,4.75c0.4,0.84,1.66,1.76,2.53,1.75c0.86,0,2.08-0.94,2.51-1.79
		c0.89-1.76,1.95-3.77,1.87-5.62c-0.15-3.25,0.41-6.95-2.65-9.37c-0.52-0.41-1.96-0.36-2.5,0.07
		C782.97,479.4,783.87,483.27,782.97,487.11 M780.87,485.72c0.65-2.78,0.95-5.44,1.94-7.81c0.56-1.34,2.22-3.03,3.45-3.09
		c1.53-0.07,3.81,0.98,4.57,2.26c1.2,2.01,2.29,4.81,1.83,6.92c-0.74,3.42,0.49,7.46-2.9,10.26c-3.02,2.48-6.49,1.88-7.75-1.9
		C781.31,490.22,781.22,487.87,780.87,485.72"/>
	<path class="st0" d="M868.57,563.19c-4.38-2.56-9.01-3.12-13.89-1.8C859.76,558.01,863.33,558.48,868.57,563.19"/>
</g>
</svg>
