<?xml version="1.0" encoding="utf-8"?>
<!-- Generator: Adobe Illustrator 24.3.0, SVG Export Plug-In . SVG Version: 6.00 Build 0)  -->
<svg version="1.1" id="Camada_1" xmlns="http://www.w3.org/2000/svg" xmlns:xlink="http://www.w3.org/1999/xlink" x="0px" y="0px"
	 viewBox="0 0 402.03 127.5" style="enable-background:new 0 0 402.03 127.5;" xml:space="preserve">

<path class="st0" d="M0.5,127.5V76.38c0-19.82,6.06-34.88,25.88-34.88h91.98c13.81,0,19.37,3.9,30.71,19.45L162.1,78.7
	c10.56,14.38,20.72,14.92,34.53,14.92l169.16,1c19.82,0,35.73,13.07,35.73,32.88"/>
<g>
	<path d="M41.41,58.76c0.21,0,0.41,0.08,0.54,0.21c0.11,0.11,0.11,0.11,0.23,0.51c0.15,0.54,1.1,0.98,2.1,0.98
		c1.12,0,1.99-0.5,1.99-1.15c0-0.32-0.21-0.62-0.54-0.8c-0.32-0.17-0.56-0.23-1.59-0.41c-0.98-0.17-1.46-0.32-1.95-0.59
		c-0.77-0.44-1.24-1.24-1.24-2.1c0-1.53,1.4-2.67,3.28-2.67c0.77,0,1.21,0.12,1.96,0.5c0.77,0.39,1.33,1.24,1.33,1.96
		c0,0.2-0.04,0.39-0.14,0.56c-0.12,0.22-0.38,0.32-0.6,0.32c-0.21,0-0.42-0.09-0.54-0.21c-0.11-0.12-0.11-0.12-0.21-0.6
		c-0.14-0.6-0.86-1.01-1.8-1.01c-0.95,0-1.71,0.5-1.71,1.15c0,0.32,0.23,0.66,0.56,0.83c0.3,0.15,0.38,0.18,1.51,0.39
		c1.31,0.24,1.89,0.45,2.36,0.83c0.6,0.48,0.89,1.1,0.89,1.89c0,1.57-1.39,2.63-3.46,2.63c-0.82,0-1.43-0.15-2.36-0.59
		c-0.64-0.3-1.38-1.08-1.38-1.81c0-0.18,0.04-0.35,0.14-0.52C40.92,58.86,41.17,58.76,41.41,58.76z"/>
	<path d="M56.18,58.13c-0.2,0-0.42-0.09-0.54-0.21c-0.12-0.09-0.15-0.18-0.23-0.51c-0.06-0.27-0.15-0.41-0.35-0.54
		c-0.39-0.24-0.94-0.38-1.6-0.38c-0.77,0-1.33,0.21-1.75,0.65c-0.39,0.39-0.6,0.94-0.6,1.51c0,1.24,0.89,1.86,2.66,1.86
		c0.6,0,1.22-0.08,1.59-0.2c0.29-0.09,0.36-0.15,0.76-0.47c0.14-0.12,0.27-0.18,0.45-0.18c0.41,0,0.75,0.35,0.75,0.77
		c0,0.39-0.35,0.78-0.97,1.1c-0.62,0.3-1.59,0.48-2.69,0.48c-1.46,0-2.4-0.32-3.14-1.04c-0.6-0.6-0.92-1.4-0.92-2.33
		c0-2.16,1.59-3.67,3.87-3.67c0.86,0,1.51,0.14,2.17,0.45c0.71,0.33,1.3,1.17,1.3,1.86c0,0.19-0.04,0.37-0.14,0.52
		C56.67,58.02,56.43,58.13,56.18,58.13z"/>
	<path d="M62.04,55.17v0.98c1.21-0.91,1.78-1.16,2.52-1.16c0.53,0,1.01,0.18,1.48,0.57c0.32,0.26,0.42,0.44,0.42,0.71
		c0,0.42-0.35,0.77-0.75,0.77c-0.21,0-0.36-0.08-0.59-0.27s-0.38-0.27-0.59-0.27c-0.48,0-1.06,0.36-2.49,1.54v3.73h-1.51v-6.6H62.04
		z"/>
	<path d="M75.33,58.49c0,1.96-1.72,3.52-3.9,3.52c-2.17,0-3.9-1.56-3.9-3.52c0-1.99,1.71-3.52,3.94-3.52
		C73.61,54.97,75.33,56.54,75.33,58.49z M69.05,58.49c0,1.13,1.04,2.01,2.39,2.01c1.34,0,2.39-0.88,2.39-2.01
		c0-1.12-1.04-2.01-2.36-2.01C70.09,56.48,69.05,57.34,69.05,58.49z"/>
	<path d="M79.74,53.86h-1.18c-0.38,0-0.56-0.03-0.69-0.15c-0.21-0.14-0.32-0.36-0.32-0.6c0-0.27,0.14-0.51,0.36-0.65
		c0.14-0.09,0.27-0.11,0.65-0.11h2.69v9.42h-1.51V53.86z"/>
	<path d="M88.8,53.86h-1.18c-0.38,0-0.56-0.03-0.69-0.15c-0.21-0.14-0.32-0.36-0.32-0.6c0-0.27,0.14-0.51,0.36-0.65
		c0.14-0.09,0.27-0.11,0.65-0.11h2.69v9.42H88.8V53.86z"/>
	<path d="M106.38,59.64c0,0.32,0.03,0.45,0.12,0.56c0.18,0.2,0.6,0.3,1.18,0.3c0.8,0,1.53-0.17,2.2-0.51
		c0.26-0.14,0.36-0.17,0.53-0.17c0.41,0,0.72,0.35,0.72,0.77c0,0.36-0.18,0.56-0.76,0.82c-0.74,0.35-1.93,0.6-2.72,0.6
		c-1.72,0-2.79-0.8-2.79-2.08v-3.25h-0.53c-0.38,0-0.54-0.03-0.69-0.15c-0.18-0.14-0.3-0.38-0.3-0.6c0-0.26,0.14-0.51,0.36-0.65
		c0.14-0.09,0.24-0.11,0.63-0.11h0.53v-1.33c0-0.39,0.03-0.54,0.15-0.69c0.14-0.18,0.36-0.3,0.6-0.3c0.26,0,0.51,0.14,0.65,0.36
		c0.09,0.14,0.11,0.24,0.11,0.63v1.33h2.73c0.41,0,0.53,0.03,0.69,0.14c0.18,0.15,0.3,0.38,0.3,0.62c0,0.26-0.14,0.51-0.36,0.65
		c-0.12,0.08-0.3,0.11-0.63,0.11h-2.73V59.64z"/>
	<path d="M120.64,58.49c0,1.96-1.72,3.52-3.9,3.52c-2.17,0-3.9-1.56-3.9-3.52c0-1.99,1.71-3.52,3.94-3.52
		C118.92,54.97,120.64,56.54,120.64,58.49z M114.36,58.49c0,1.13,1.04,2.01,2.39,2.01c1.34,0,2.39-0.88,2.39-2.01
		c0-1.12-1.04-2.01-2.36-2.01C115.4,56.48,114.36,57.34,114.36,58.49z"/>
	<path d="M48.15,72.42c0,1.96-1.72,3.52-3.9,3.52c-2.17,0-3.9-1.56-3.9-3.52c0-1.99,1.71-3.52,3.94-3.52
		C46.43,68.9,48.15,70.47,48.15,72.42z M41.87,72.42c0,1.13,1.04,2.01,2.39,2.01c1.34,0,2.39-0.88,2.39-2.01
		c0-1.12-1.04-2.01-2.36-2.01C42.91,70.41,41.87,71.27,41.87,72.42z"/>
	<path d="M51.41,69.1v0.68c0.74-0.63,1.37-0.88,2.31-0.88c2.11,0,3.68,1.47,3.68,3.41c0,1.86-1.56,3.23-3.65,3.23
		c-0.89,0-1.56-0.24-2.34-0.85v4.09H49.9V69.1H51.41z M52.14,70.85c-0.44,0.32-0.73,0.88-0.73,1.36c0,1.07,0.92,1.83,2.25,1.83
		c1.3,0,2.23-0.75,2.23-1.81c0-0.5-0.29-1.06-0.72-1.37c-0.39-0.3-0.89-0.44-1.51-0.44C53.03,70.41,52.53,70.55,52.14,70.85z"/>
	<path d="M59.99,73.1c0.35,0.91,1.15,1.33,2.48,1.33c0.69,0,1.07-0.06,2.46-0.42c0.18-0.05,0.36-0.08,0.5-0.08
		c0.41,0,0.72,0.33,0.72,0.76c0,0.3-0.17,0.51-0.53,0.68c-0.68,0.3-2.22,0.57-3.29,0.57c-2.34,0-3.99-1.45-3.99-3.5
		c0-1.99,1.69-3.53,3.9-3.53c2.25,0,3.91,1.53,3.91,3.61v0.59H59.99z M64.47,71.77c-0.24-0.83-1.12-1.36-2.22-1.36
		c-1.1,0-1.99,0.54-2.22,1.36H64.47z"/>
	<path d="M69.85,69.1v0.73c0.72-0.69,1.24-0.92,2.07-0.92c0.68,0,1.3,0.2,1.8,0.56c0.6,0.45,0.89,1.09,0.89,1.98v4.26H73.1v-4.2
		c0-0.74-0.42-1.09-1.36-1.09c-0.69,0-1.18,0.26-1.89,1.03v4.26h-1.5v-6.6H69.85z"/>
	<path d="M88.03,75.69v-5.09h-0.71c-0.36,0-0.54-0.03-0.68-0.15c-0.2-0.14-0.32-0.36-0.32-0.6c0-0.26,0.14-0.51,0.36-0.65
		c0.14-0.09,0.24-0.11,0.65-0.11h0.69v-0.56c0-1.39,1.12-2.25,2.91-2.25c0.63,0,1.59,0.11,2.07,0.24c0.41,0.11,0.63,0.36,0.63,0.71
		c0,0.44-0.32,0.77-0.71,0.77c-0.09,0-0.24-0.01-0.42-0.05c-0.51-0.09-1.24-0.17-1.71-0.17c-0.86,0-1.27,0.24-1.27,0.74v0.56h2.28
		c0.41,0,0.53,0.03,0.68,0.14c0.2,0.15,0.32,0.38,0.32,0.62c0,0.26-0.14,0.5-0.36,0.65c-0.12,0.07-0.3,0.11-0.63,0.11h-2.28v5.09
		H88.03z"/>
	<path d="M97.87,70.61h-1.18c-0.38,0-0.56-0.03-0.69-0.15c-0.2-0.14-0.32-0.36-0.32-0.6c0-0.26,0.14-0.51,0.36-0.65
		c0.14-0.09,0.26-0.11,0.65-0.11h2.69v6.6h-1.51V70.61z M99.16,67.87h-1.78v-1.59h1.78V67.87z"/>
	<path d="M106.93,67.78h-1.18c-0.38,0-0.56-0.03-0.69-0.15c-0.21-0.14-0.32-0.36-0.32-0.6c0-0.27,0.14-0.51,0.36-0.65
		c0.14-0.09,0.27-0.11,0.65-0.11h2.69v9.42h-1.51V67.78z"/>
	<path d="M114.36,73.1c0.35,0.91,1.15,1.33,2.48,1.33c0.69,0,1.07-0.06,2.46-0.42c0.18-0.05,0.36-0.08,0.5-0.08
		c0.41,0,0.72,0.33,0.72,0.76c0,0.3-0.17,0.51-0.53,0.68c-0.68,0.3-2.22,0.57-3.29,0.57c-2.34,0-3.99-1.45-3.99-3.5
		c0-1.99,1.69-3.53,3.9-3.53c2.25,0,3.91,1.53,3.91,3.61v0.59H114.36z M118.84,71.77c-0.24-0.83-1.12-1.36-2.22-1.36
		c-1.1,0-1.99,0.54-2.22,1.36H118.84z"/>
</g>
<g>
	<path d="M21.37,62.75c-0.19-0.22-0.28-0.41-0.28-0.57c0-0.35,0.28-0.63,0.63-0.63c0.25,0,0.41,0.09,0.63,0.41l4.62,5.82l4.62-5.82
		c0.22-0.31,0.38-0.41,0.63-0.41c0.35,0,0.63,0.28,0.63,0.63c0,0.19-0.06,0.31-0.28,0.57l-5.6,7.01L21.37,62.75z"/>
</g>
</svg>
